<!DOCTYPE svg PUBLIC "-//W3C//DTD SVG 20010904//EN" "http://www.w3.org/TR/2001/REC-SVG-20010904/DTD/svg10.dtd">
<svg version="1.0" xmlns="http://www.w3.org/2000/svg" width="840px" height="900px" viewBox="0 0 8400 9000" preserveAspectRatio="xMidYMid meet">
<g id="layer101" fill="#131313" stroke="none">
 <path d="M0 4500 l0 -4500 4200 0 4200 0 0 4500 0 4500 -4200 0 -4200 0 0 -4500z"/>
 </g>
<g id="layer102" fill="#f5f5f5" stroke="none">
 <path d="M0 4500 l0 -4500 4200 0 4200 0 0 4500 0 4500 -4200 0 -4200 0 0 -4500z m3993 3558 c17 -17 17 -20 1 -47 -11 -19 -31 -33 -63 -42 -59 -18 -70 -49 -18 -49 19 0 40 7 47 15 24 29 80 12 74 -22 -1 -7 -2 -17 -3 -21 -1 -12 -33 -11 -48 0 -7 6 -19 5 -32 -2 -12 -6 -50 -11 -86 -12 -67 -1 -105 17 -105 48 0 18 37 40 80 48 39 7 71 43 50 56 -7 4 -27 3 -44 -2 -66 -22 -84 -21 -96 2 -16 29 -7 47 22 44 12 -1 25 -3 28 -4 3 -1 10 -1 15 0 42 10 114 16 135 12 14 -3 33 -13 43 -24z m342 22 c29 0 31 -2 27 -35 -4 -31 -8 -35 -33 -35 -19 0 -29 5 -29 15 0 12 -13 15 -58 15 l-57 0 -3 -59 c-3 -52 0 -61 18 -71 11 -6 18 -15 15 -21 -8 -11 -125 -12 -144 0 -16 10 -6 31 14 31 8 0 14 8 14 18 0 9 1 26 2 37 4 48 -2 75 -16 75 -16 0 -20 21 -7 34 4 5 57 5 117 2 61 -3 124 -6 140 -6z m181 -24 c-2 -6 -1 -8 1 -3 3 4 18 7 34 7 22 0 29 -5 29 -20 0 -10 -8 -23 -17 -29 -16 -8 -15 -11 10 -20 16 -6 43 -11 62 -11 31 0 33 2 31 33 -1 31 0 32 39 29 22 -2 57 -8 78 -13 51 -13 47 -41 -6 -50 -23 -4 -51 -18 -70 -37 -106 -101 -103 -100 -143 -93 -37 6 -39 8 -73 95 -23 57 -43 92 -55 96 -16 5 -17 8 -3 21 17 18 87 14 83 -5z m-836 -17 c0 -12 -8 -23 -19 -26 -19 -5 -19 -10 -7 -58 10 -40 20 -55 36 -55 16 0 36 -27 26 -37 -7 -8 -138 -23 -147 -17 -15 9 -10 44 6 44 16 0 20 12 8 24 -4 3 -8 14 -9 23 -7 48 -16 63 -34 63 -11 0 -20 4 -20 9 0 5 -3 16 -6 25 -5 12 5 16 53 19 32 2 70 4 86 5 21 2 27 -2 27 -19z m1278 -50 c23 -7 42 -15 42 -18 -1 -12 -27 -41 -38 -41 -5 0 -13 -7 -16 -16 -9 -24 -8 -26 12 -15 44 23 147 50 171 44 52 -12 53 -20 15 -95 -25 -50 -32 -73 -25 -82 8 -9 7 -17 -2 -28 -11 -13 -19 -13 -74 4 -64 20 -87 48 -38 48 17 0 29 9 40 31 9 17 14 33 12 36 -6 6 -150 -56 -157 -68 -8 -11 -110 22 -110 35 0 18 14 31 33 31 11 0 29 20 47 52 26 45 28 53 15 61 -21 11 -8 44 14 38 9 -3 35 -10 59 -17z m-1678 -18 c5 -11 10 -24 10 -29 0 -14 -67 -25 -87 -14 -11 7 -21 5 -31 -4 -7 -8 -22 -14 -32 -14 -23 0 -31 -12 -20 -30 7 -11 15 -12 51 -1 34 10 43 10 50 0 10 -17 -8 -39 -31 -39 -10 0 -23 -6 -29 -14 -10 -11 -9 -16 4 -24 21 -11 95 7 95 24 0 6 17 15 37 19 29 5 40 3 50 -11 7 -10 13 -21 13 -24 0 -20 -258 -89 -281 -75 -6 4 -8 16 -5 27 7 27 -40 115 -65 121 -37 10 -11 48 31 46 3 0 19 5 35 11 31 12 160 47 182 49 7 1 17 -8 23 -18z m2085 -105 c90 -39 131 -72 141 -111 9 -37 -3 -55 -56 -82 -66 -34 -130 -29 -243 19 -52 23 -60 48 -18 58 13 3 37 25 54 48 26 35 29 45 17 52 -12 7 -11 12 4 29 11 12 20 21 21 21 1 0 37 -15 80 -34z m-2419 -1 c19 -29 19 -29 -21 -42 -20 -7 -35 -7 -46 0 -13 8 -21 6 -33 -6 -9 -8 -25 -19 -36 -22 -16 -5 -18 -10 -10 -26 10 -18 13 -18 40 -4 37 19 56 19 64 0 3 -10 -5 -20 -24 -30 -33 -17 -40 -45 -11 -45 30 0 81 21 81 34 0 6 14 17 32 24 27 10 35 9 50 -5 10 -9 18 -20 18 -24 0 -13 -45 -34 -156 -72 -107 -37 -124 -36 -124 8 0 27 -42 86 -76 105 -15 8 -27 19 -28 24 0 6 40 25 89 43 50 19 104 40 120 48 43 20 52 18 71 -10z m1195 -67 c19 -6 51 -22 71 -35 49 -30 58 -29 93 7 62 65 90 18 29 -49 -33 -38 -35 -42 -25 -78 22 -78 6 -135 -34 -119 -11 4 -15 20 -15 57 0 28 -4 49 -9 47 -13 -4 -181 -200 -181 -210 0 -5 14 -17 31 -26 86 -46 133 -122 113 -180 -25 -74 -184 -83 -264 -15 -67 56 -79 147 -26 202 32 33 32 42 4 67 -11 10 -41 45 -65 78 -34 45 -43 67 -43 98 0 79 39 122 137 148 81 22 138 24 184 8z m532 -19 c45 -23 67 -52 67 -86 0 -38 1 -38 42 -17 61 32 154 13 246 -48 65 -45 73 -62 74 -174 2 -87 -1 -105 -22 -148 -14 -27 -47 -74 -74 -103 -37 -41 -55 -53 -78 -53 -72 0 -174 80 -214 170 -14 32 -34 66 -44 75 -17 15 -19 15 -28 -2 -5 -10 -15 -43 -22 -73 -7 -30 -27 -84 -45 -120 -18 -36 -37 -87 -44 -114 -22 -91 -55 -136 -99 -136 -34 0 -110 34 -139 62 -42 39 -23 83 23 54 18 -13 29 -14 44 -6 26 14 81 135 135 295 24 72 60 168 79 215 40 97 44 134 16 170 -24 31 -25 46 -3 59 17 9 40 4 86 -20z m981 -17 c15 -18 15 -21 -5 -45 -24 -31 -45 -34 -77 -11 -22 15 -22 17 -6 35 11 12 25 17 36 13 13 -4 16 -1 12 10 -9 22 19 20 40 -2z m-2976 -57 c17 -21 20 -30 12 -46 -9 -16 -7 -21 13 -28 13 -5 27 -18 31 -28 9 -21 -1 -28 -125 -95 -86 -46 -87 -47 -105 -27 -16 17 -16 22 -4 29 12 7 6 18 -30 55 -28 29 -50 43 -61 40 -15 -5 -47 20 -37 30 2 2 49 27 104 55 115 58 162 61 202 15z m832 -48 c31 -24 50 -62 50 -97 0 -50 -46 -102 -159 -179 -69 -47 -92 -69 -101 -94 -6 -19 -8 -41 -5 -49 15 -37 121 -52 164 -22 17 12 22 23 18 43 -13 64 -13 66 14 69 28 3 124 -55 124 -76 0 -6 -14 -20 -32 -30 -17 -9 -49 -27 -70 -39 -50 -27 -148 -53 -205 -53 -59 0 -164 37 -183 63 -30 43 -19 71 53 140 37 36 90 82 117 103 109 82 154 153 108 171 -23 9 -115 -12 -178 -41 -38 -17 -66 -41 -101 -85 -35 -44 -56 -61 -73 -61 -21 0 -23 3 -18 34 9 55 36 85 111 123 142 73 325 113 366 80z m2436 -96 c21 -16 49 -31 61 -35 31 -10 37 -36 13 -53 -13 -9 -19 -21 -15 -32 3 -10 -1 -24 -10 -31 -12 -10 -23 -6 -62 22 -54 39 -63 64 -20 61 24 -2 26 1 17 17 -16 29 -43 40 -77 31 -50 -14 -73 -34 -73 -61 0 -35 17 -50 60 -50 21 -1 46 -10 63 -24 l28 -23 -25 -16 c-23 -15 -56 -14 -56 2 0 4 -20 13 -45 20 -61 18 -95 51 -95 93 0 67 54 107 146 108 40 0 58 -6 90 -29z m-3661 -17 c16 -12 17 -17 7 -23 -11 -6 -7 -13 16 -29 22 -16 49 -23 107 -26 42 -2 79 -7 83 -11 4 -4 -8 -20 -27 -35 -27 -23 -38 -27 -53 -19 -10 5 -18 14 -18 19 0 6 -11 10 -25 10 -20 0 -25 -5 -25 -25 0 -22 3 -25 24 -19 44 11 36 -13 -15 -45 -60 -37 -70 -38 -68 -8 1 12 1 41 1 64 -2 36 -7 44 -37 63 -19 12 -39 19 -44 16 -12 -8 -43 4 -39 15 3 9 80 68 88 68 3 0 14 -6 25 -15z m3181 -70 c95 -45 189 -129 204 -183 27 -96 3 -175 -74 -250 -33 -32 -36 -33 -103 -29 -142 9 -288 100 -343 213 -17 35 -18 49 -10 108 15 102 39 140 110 172 52 23 123 13 216 -31z m714 -85 c43 -38 44 -40 26 -54 -11 -8 -28 -13 -38 -9 -28 8 -22 -18 10 -49 34 -33 41 -33 71 -2 13 14 27 25 31 25 5 0 27 -21 50 -47 38 -44 40 -48 24 -60 -23 -17 -39 -16 -54 1 -12 16 -53 15 -188 -6 -65 -10 -74 -9 -92 7 -11 10 -20 23 -20 29 0 7 26 47 57 91 35 48 52 80 45 83 -25 8 -9 25 28 30 3 1 25 -17 50 -39z m-3341 22 c22 -14 5 -28 -44 -34 -56 -8 -184 -60 -213 -88 -12 -11 -22 -32 -22 -47 0 -38 19 -102 30 -102 6 0 30 15 55 34 52 40 191 96 237 96 43 -1 113 -33 127 -58 17 -31 13 -104 -6 -132 -32 -48 -150 -144 -201 -166 -44 -18 -82 -18 -174 1 -102 21 -123 31 -161 79 -100 122 -86 213 49 319 97 76 166 107 243 107 36 0 72 -4 80 -9z m-780 -40 c8 -5 11 -16 8 -24 -6 -15 22 -39 85 -72 31 -16 39 -17 53 -5 9 7 14 19 11 26 -9 24 26 34 58 17 l31 -16 -55 -49 c-30 -28 -74 -66 -98 -85 l-43 -36 -35 19 c-31 17 -33 20 -17 31 9 7 26 13 37 13 22 0 54 16 46 23 -3 2 -35 20 -71 39 -45 25 -70 33 -77 26 -11 -11 -52 6 -52 22 0 9 88 80 99 80 3 0 12 -4 20 -9z m3869 -208 c64 -37 165 -141 196 -200 27 -55 35 -128 16 -163 -6 -10 -11 -30 -12 -44 -1 -13 -5 -24 -8 -23 -3 0 -23 -15 -44 -36 -59 -55 -94 -69 -142 -56 -21 6 -57 21 -79 32 -22 12 -43 20 -47 19 -5 -1 -8 5 -8 13 0 8 -4 15 -8 15 -26 0 -98 81 -128 144 -40 82 -42 114 -12 187 33 83 62 117 116 133 57 19 103 12 160 -21z m-3617 -3 c27 -15 24 -27 -11 -34 -40 -7 -80 -51 -80 -87 0 -34 23 -62 144 -173 l96 -88 49 41 c27 23 52 41 55 41 17 0 2 -30 -34 -65 -32 -31 -37 -42 -29 -57 5 -10 15 -18 22 -18 7 0 38 -27 68 -61 29 -33 82 -81 117 -106 34 -24 62 -51 62 -58 0 -15 -133 -49 -164 -41 -12 3 -66 48 -120 100 l-99 95 -35 -30 c-47 -42 -65 -24 -26 26 l28 37 -97 93 c-73 72 -104 109 -128 160 l-32 66 19 45 c21 51 80 101 135 114 19 4 35 8 37 9 2 1 12 -4 23 -9z m-321 -315 c-20 -24 -3 -50 78 -122 161 -142 224 -210 218 -231 -4 -11 -36 -48 -72 -82 -50 -48 -68 -60 -77 -51 -9 9 -9 16 1 31 6 11 18 29 24 40 12 18 1 32 -122 155 -138 138 -155 149 -201 125 -16 -9 -19 -7 -19 9 0 20 120 138 155 151 24 9 32 -5 15 -25z m2430 -5 c52 -6 124 -18 160 -27 37 -9 110 -16 170 -16 86 0 95 -1 50 -7 -62 -8 -50 -13 25 -12 28 1 44 -1 38 -4 -26 -12 -12 -24 30 -25 36 -1 38 -2 17 -9 l-25 -8 25 -2 c14 -1 36 -2 50 -1 23 1 23 0 5 -8 l-20 -10 20 -2 c44 -5 140 -4 145 3 7 9 130 17 165 10 l30 -6 -30 -7 c-30 -7 -30 -7 -3 -8 15 0 30 4 33 9 3 6 18 9 33 9 17 -1 21 -3 10 -6 -42 -11 -12 -23 57 -23 64 0 74 -2 68 -16 -4 -12 -8 -12 -13 -3 -11 16 -60 3 -60 -16 0 -8 -5 -15 -11 -15 -6 0 -8 9 -4 20 6 18 4 19 -17 11 -14 -5 -31 -5 -40 0 -29 16 -104 -9 -84 -28 3 -3 54 -7 112 -8 90 -2 110 -6 121 -21 7 -10 13 -24 13 -32 0 -8 11 -27 25 -44 14 -16 25 -40 25 -53 0 -13 5 -27 10 -30 6 -3 10 -14 10 -24 0 -10 9 -26 20 -36 11 -10 20 -16 20 -13 0 8 -50 132 -61 152 -8 13 -7 22 0 29 8 8 5 17 -8 31 -10 12 -22 31 -26 44 -5 19 -3 22 20 22 14 0 24 4 21 9 -9 13 59 23 109 16 24 -4 46 -13 49 -21 4 -11 -1 -13 -19 -8 -20 5 -27 1 -34 -18 -5 -13 -16 -30 -25 -37 -9 -7 -16 -22 -16 -31 0 -26 67 -79 118 -93 23 -6 42 -15 42 -20 0 -4 -8 -6 -17 -3 -10 3 -31 8 -48 11 -16 4 -49 14 -73 22 -23 9 -45 14 -47 11 -10 -10 83 -77 149 -109 37 -17 69 -36 72 -40 7 -13 3 -11 -44 11 -47 23 -52 24 -52 10 0 -5 16 -17 35 -26 20 -9 38 -21 42 -27 3 -5 2 -8 -3 -6 -5 3 -22 11 -39 19 -16 8 -51 31 -77 52 -26 21 -49 38 -52 38 -3 0 9 -22 26 -50 17 -27 34 -50 38 -50 3 0 15 -8 26 -17 10 -10 48 -43 84 -73 152 -128 335 -336 456 -518 82 -122 212 -383 267 -537 46 -128 94 -313 116 -450 7 -38 14 -81 16 -95 3 -14 8 -110 11 -215 8 -222 -6 -406 -42 -563 -7 -34 -13 -66 -12 -70 0 -4 -2 -14 -5 -22 -4 -8 -11 -35 -17 -60 -30 -129 -100 -319 -168 -460 -191 -394 -487 -740 -837 -979 -115 -79 -269 -171 -284 -171 -6 0 -11 -4 -11 -10 0 -5 -3 -9 -7 -8 -5 1 -35 -11 -68 -26 -74 -35 -196 -87 -210 -90 -45 -10 -155 -52 -155 -59 0 -4 -3 -6 -8 -4 -4 3 -54 -6 -112 -19 -134 -31 -134 -30 -264 -50 -107 -15 -395 -24 -551 -15 -82 4 -263 33 -355 56 -36 9 -81 20 -100 24 -19 4 -51 13 -70 19 -106 35 -187 63 -205 72 -11 5 -38 16 -60 25 -84 35 -194 91 -283 144 -51 31 -105 62 -120 70 -15 8 -29 17 -32 20 -3 3 -32 26 -65 51 -237 177 -399 338 -557 553 -20 29 -42 57 -48 64 -27 32 -129 210 -179 313 -73 151 -114 253 -161 405 -22 72 -24 78 -40 155 -5 25 -12 56 -15 70 -3 14 -10 61 -16 105 -6 44 -14 107 -19 140 -20 150 -4 518 30 685 36 173 102 400 145 495 12 28 40 88 61 135 21 47 42 90 47 97 5 7 17 28 28 48 48 88 55 101 71 124 28 40 7 65 -185 222 -18 14 -54 40 -81 59 -27 18 -78 59 -114 92 -85 77 -111 90 -174 86 -40 -2 -53 1 -62 15 -9 15 -3 25 41 67 53 51 84 61 124 40 17 -10 18 -8 13 33 -4 25 -1 60 6 81 23 71 151 186 207 186 9 0 55 -11 100 -25 95 -29 140 -64 196 -148 52 -78 52 -110 3 -165 -47 -52 -119 -88 -190 -97 -68 -8 -106 -20 -106 -34 0 -5 24 -24 52 -42 29 -19 80 -59 113 -89 72 -67 163 -126 174 -114 4 5 27 34 52 64 81 100 220 243 334 342 68 60 267 203 330 238 98 55 100 57 63 58 -35 1 -56 21 -64 62 -3 14 -9 33 -15 42 -17 33 -10 45 30 52 45 7 95 -8 89 -26 -3 -7 -21 -17 -41 -21 -32 -8 -37 -13 -37 -37 0 -45 20 -53 73 -31 48 21 71 49 61 75 -8 22 22 21 34 0 8 -15 11 -15 30 4 l22 22 -28 5 c-15 3 -41 10 -58 15 -17 6 -39 10 -49 10 -16 0 -15 3 6 21 25 21 27 21 145 3 26 -4 44 -2 48 5 4 6 33 11 64 12 31 0 51 3 45 6 -18 7 -16 23 2 23 8 0 15 -5 15 -11 0 -6 7 -3 17 6 11 11 24 15 42 10 57 -14 89 -16 95 -6 4 6 23 11 42 11 21 0 33 -4 29 -10 -7 -11 18 -14 28 -4 3 4 26 8 49 9 24 1 93 12 153 23 61 12 155 25 210 28 55 4 101 8 102 9 8 6 343 -6 423 -15z m1932 -101 c138 -122 140 -124 136 -173 -4 -54 -31 -61 -56 -15 -26 50 -83 99 -114 99 -41 0 -51 -30 -56 -165 -3 -97 -8 -126 -24 -153 -35 -58 -57 -53 -157 33 -101 88 -130 123 -142 174 -9 41 3 61 36 61 25 0 35 -17 35 -56 0 -15 16 -41 40 -67 33 -35 42 -40 57 -31 14 9 21 35 31 130 15 140 28 201 48 232 26 40 56 28 166 -69z m-3177 51 c-12 -5 -14 -9 -6 -9 8 -1 12 -4 8 -7 -9 -9 -48 6 -42 17 4 5 18 9 33 8 24 0 25 -1 7 -9z m1738 -16 c-8 -21 -23 -17 -23 6 0 13 5 18 14 14 8 -3 12 -12 9 -20z m90 19 c-32 -4 -47 -23 -19 -23 8 0 17 -4 20 -9 3 -4 -6 -6 -19 -3 -54 10 -37 43 20 40 l30 -1 -32 -4z m84 -9 c4 -12 14 -14 34 -10 16 3 29 1 29 -4 0 -6 -23 -10 -51 -10 -43 0 -50 2 -40 14 9 11 9 15 -1 19 -8 3 -6 6 5 6 10 1 20 -6 24 -15z m183 -19 c0 -11 -12 -15 -47 -14 l-48 1 40 13 c53 17 55 17 55 0z m239 -57 c12 -16 11 -18 -3 -18 -11 0 -14 5 -10 12 5 8 2 9 -11 4 -15 -5 -16 -4 -5 9 7 9 13 14 14 13 1 -2 8 -11 15 -20z m1058 -264 c53 -26 152 -123 199 -194 25 -38 48 -147 37 -176 -8 -21 -24 -17 -31 8 -10 38 -82 176 -108 207 -14 17 -33 33 -44 36 -20 6 -120 -32 -120 -46 0 -5 21 -30 46 -56 54 -57 124 -191 124 -239 0 -88 -55 -141 -137 -131 -35 4 -58 17 -115 64 -40 33 -87 81 -105 108 -32 46 -33 50 -33 154 0 123 15 164 76 222 79 74 129 85 211 43z m-4133 -84 c14 -5 26 -17 26 -27 0 -24 -50 -73 -75 -73 -49 0 -61 56 -19 89 31 24 34 24 68 11z m5209 -1112 c8 -12 6 -31 -8 -72 l-19 -56 26 -27 c70 -75 97 -181 105 -408 7 -220 -3 -287 -62 -388 -50 -84 -80 -112 -136 -127 -74 -20 -115 20 -225 216 -215 384 -282 479 -375 528 -44 23 -63 17 -85 -26 -40 -77 -23 -329 30 -443 42 -92 112 -139 170 -116 67 28 71 24 74 -60 2 -69 0 -80 -21 -104 -22 -26 -27 -27 -72 -21 -39 6 -56 16 -94 55 -61 63 -84 113 -120 256 -45 181 -56 301 -42 432 22 194 68 263 175 263 64 0 139 -41 189 -102 19 -24 69 -106 112 -182 109 -197 149 -258 200 -305 50 -46 84 -52 136 -25 51 26 72 89 73 221 1 134 -1 137 -128 202 -77 38 -86 46 -92 77 -9 48 2 83 32 96 13 6 45 40 70 75 46 65 67 74 87 41z m-6237 -509 c1 -217 -2 -268 -14 -288 -14 -23 -15 -24 -28 -6 -8 10 -14 42 -14 70 0 73 -13 86 -91 91 -47 4 -87 -1 -149 -18 l-85 -23 1 -55 c0 -30 4 -144 9 -252 l8 -197 155 3 155 3 19 37 c10 20 22 36 27 36 8 0 21 -220 21 -362 0 -110 -34 -122 -51 -17 -5 29 -13 57 -18 62 -6 6 -75 10 -163 9 -84 0 -213 3 -285 8 -119 7 -138 6 -183 -11 -28 -10 -70 -19 -93 -19 -61 0 -80 -18 -92 -87 -15 -80 -38 -80 -47 2 -12 106 -11 274 1 289 13 16 58 21 308 35 90 5 167 13 173 16 6 4 10 97 10 250 0 285 13 258 -131 276 -87 10 -99 10 -156 -10 -34 -11 -69 -18 -77 -15 -9 3 -27 3 -41 0 -24 -6 -41 -43 -47 -106 -2 -19 -8 -24 -23 -22 -44 8 -45 12 -45 288 l0 264 25 0 c27 0 29 -3 42 -115 l8 -70 50 -8 c68 -11 230 0 345 23 52 10 158 22 235 26 88 4 148 11 161 19 15 10 23 28 28 67 4 29 12 58 18 66 29 34 33 3 34 -259z m6443 -625 c3 -2 10 -38 16 -80 12 -74 12 -76 -12 -91 -18 -12 -42 -14 -107 -11 -129 7 -149 40 -70 116 68 65 143 93 173 66z m-300 -178 c104 -56 184 -126 206 -180 18 -42 20 -208 4 -276 -15 -68 -87 -267 -121 -336 -69 -143 -310 -345 -412 -346 -62 0 -262 20 -301 31 -121 32 -228 159 -255 300 -42 221 216 717 429 826 55 28 158 43 261 38 92 -5 98 -7 189 -57z m-6153 -412 c52 -29 201 -187 254 -268 87 -131 187 -350 205 -446 8 -44 -12 -102 -65 -192 -37 -61 -45 -68 -98 -88 -31 -12 -78 -35 -103 -51 -26 -16 -64 -35 -86 -42 -55 -17 -313 -156 -319 -172 -3 -7 2 -28 11 -46 16 -31 16 -33 -1 -46 -48 -35 -69 -11 -124 140 -20 56 -54 132 -74 168 -41 75 -45 99 -16 99 20 0 32 -10 77 -65 26 -31 29 -30 148 23 44 19 122 50 174 69 156 55 234 111 303 217 46 72 49 110 12 204 -35 89 -109 214 -151 254 -32 31 -38 33 -101 32 -50 -1 -97 -11 -187 -41 -127 -43 -405 -173 -427 -200 -7 -9 -15 -41 -18 -72 -4 -43 -9 -57 -23 -59 -14 -3 -39 42 -128 225 -117 241 -129 274 -109 298 20 24 28 19 65 -39 45 -71 68 -86 130 -86 41 0 71 10 152 50 56 27 160 72 231 99 72 27 139 54 149 60 24 14 68 5 119 -25z m5368 -700 c33 -8 102 -35 151 -59 83 -40 94 -49 145 -117 81 -109 113 -178 118 -251 3 -57 0 -69 -43 -154 -37 -75 -67 -115 -160 -215 -160 -173 -212 -210 -370 -261 -151 -49 -258 -59 -313 -29 -173 93 -248 141 -282 180 -70 79 -104 213 -81 323 18 84 75 171 186 283 110 111 226 194 357 256 133 62 189 71 292 44z m-4615 -367 c62 -23 174 -97 305 -201 174 -139 230 -224 212 -322 -12 -62 -56 -32 -56 38 0 94 -58 172 -198 267 -141 96 -189 94 -344 -10 -133 -90 -208 -169 -265 -279 -62 -119 1 -331 114 -389 80 -40 131 -35 185 16 25 24 30 25 52 14 42 -23 52 -53 37 -124 -20 -98 -61 -177 -92 -177 -6 0 -21 25 -35 55 -22 51 -29 58 -91 88 -87 41 -215 162 -281 266 -58 91 -115 222 -136 310 -14 61 -14 68 5 125 66 196 176 325 296 346 73 13 229 1 292 -23z m3406 -517 c3 -5 -13 -22 -35 -37 -72 -48 -108 -82 -114 -108 -7 -29 46 -180 75 -210 18 -19 19 -19 96 22 43 22 137 67 208 99 119 53 137 58 215 62 94 5 127 -5 213 -60 95 -61 128 -170 88 -291 -25 -73 -57 -111 -152 -179 -90 -63 -154 -98 -309 -166 -74 -33 -196 -89 -271 -125 -166 -79 -203 -92 -225 -79 -14 8 -8 15 38 45 57 36 98 80 98 104 0 7 -15 44 -34 82 -19 37 -51 114 -71 172 -20 57 -47 115 -59 129 -37 40 -101 150 -121 209 -9 29 -30 67 -45 84 -27 30 -28 31 -70 18 -43 -13 -65 -6 -52 16 11 17 254 126 374 168 55 19 107 39 116 45 22 12 29 12 37 0z m-2021 -316 c21 -8 20 -41 -1 -48 -10 -3 -35 -8 -56 -12 -20 -3 -39 -10 -42 -13 -2 -4 7 -34 20 -67 19 -46 30 -60 51 -66 38 -10 584 -14 609 -5 21 8 90 98 119 154 23 46 43 53 146 53 101 0 130 -10 130 -44 0 -35 -67 -130 -166 -236 -128 -136 -185 -208 -273 -339 -108 -162 -138 -218 -125 -239 6 -9 41 -24 78 -33 37 -10 70 -20 74 -23 11 -11 -16 -28 -56 -36 -47 -8 -345 0 -362 10 -8 5 -4 26 18 76 20 48 27 76 21 90 -4 12 -50 79 -102 150 -53 71 -124 179 -158 241 -74 134 -108 176 -193 237 -77 55 -114 72 -188 86 -126 25 -54 49 147 51 77 1 167 5 200 9 87 10 92 11 109 4z m-561 -175 c54 -29 97 -71 97 -96 0 -38 -46 -93 -98 -116 -39 -17 -59 -19 -133 -14 -140 9 -172 31 -186 127 -7 47 15 65 108 89 84 22 180 27 212 10z m2047 -130 c53 -32 90 -70 90 -94 0 -28 -52 -89 -94 -109 -46 -22 -184 -21 -251 2 -48 16 -51 19 -68 75 -19 59 -19 59 2 81 15 16 48 29 99 41 42 9 82 18 87 20 33 11 104 3 135 -16z"/>
 <path d="M4570 7935 c0 -21 16 -27 29 -11 9 11 7 15 -9 19 -13 3 -20 0 -20 -8z"/>
 <path d="M5321 7764 c-18 -25 -30 -48 -27 -52 12 -11 74 -6 91 8 21 18 16 59 -11 76 -19 13 -23 11 -53 -32z"/>
 <path d="M4007 7730 c-40 -32 -57 -72 -57 -137 0 -40 6 -68 20 -91 19 -31 22 -32 41 -18 47 33 199 190 199 205 0 23 -62 52 -125 58 -41 4 -55 1 -78 -17z"/>
 <path d="M4034 7362 c-18 -12 -34 -49 -34 -80 0 -21 9 -38 31 -56 34 -29 47 -31 83 -15 48 22 38 81 -24 133 -34 28 -39 30 -56 18z"/>
 <path d="M4758 7605 c-42 -14 -48 -19 -62 -62 -23 -67 -21 -77 29 -153 31 -50 56 -75 85 -90 62 -31 79 -24 125 50 34 56 40 73 40 121 -1 66 -19 99 -67 122 -51 24 -99 28 -150 12z"/>
 <path d="M2526 7655 c-32 -19 -37 -25 -23 -31 19 -7 89 26 95 44 6 20 -30 13 -72 -13z"/>
 <path d="M2598 7582 c-28 -17 -36 -32 -18 -32 21 0 71 31 65 40 -8 13 -14 12 -47 -8z"/>
 <path d="M5364 7415 c-63 -38 -101 -128 -88 -214 5 -36 15 -54 45 -83 130 -125 291 -23 277 174 -5 67 -21 89 -90 124 -60 30 -92 30 -144 -1z"/>
 <path d="M6100 7255 c-10 -13 -9 -15 9 -15 11 0 21 4 21 9 0 18 -18 21 -30 6z"/>
 <path d="M2720 7169 c-66 -30 -110 -66 -110 -93 0 -36 52 -77 103 -83 121 -14 208 99 136 176 -25 26 -69 26 -129 0z"/>
 <path d="M5849 7057 c-56 -38 -93 -102 -97 -172 -4 -57 -2 -63 33 -107 56 -72 127 -87 201 -43 51 30 91 103 101 183 l6 52 -55 55 c-52 52 -58 55 -105 55 -36 0 -60 -7 -84 -23z"/>
 <path d="M3930 6833 c-76 -5 -283 -35 -305 -44 -14 -5 4 -9 55 -10 143 -6 180 -5 180 3 0 4 5 8 10 8 6 0 9 -6 8 -12 -2 -8 10 -14 27 -16 17 -2 34 -8 40 -13 5 -5 31 -9 57 -9 32 0 48 -4 48 -12 0 -10 2 -10 8 -1 6 10 17 10 47 2 23 -7 61 -8 90 -4 80 11 122 10 139 -4 9 -7 37 -15 62 -17 26 -2 58 -11 72 -20 23 -15 25 -15 19 1 -6 14 -2 16 26 10 17 -4 35 -12 38 -17 4 -7 9 -7 13 0 3 6 44 8 101 6 61 -3 95 -1 95 6 0 5 -23 10 -51 10 -33 0 -48 4 -44 11 4 6 14 8 22 5 27 -11 250 -16 225 -6 -13 5 -53 10 -90 11 -85 2 -129 17 -57 19 49 2 49 2 15 10 -19 5 -38 6 -41 4 -4 -2 -9 0 -11 5 -4 14 -247 57 -388 70 -106 10 -301 12 -410 4z m-135 -43 c18 -8 17 -9 -7 -9 -16 -1 -28 4 -28 9 0 12 8 12 35 0z m155 -3 c8 -3 22 -8 30 -10 8 -3 -10 -5 -40 -5 -30 0 -49 2 -41 5 11 5 11 7 0 14 -15 9 24 6 51 -4z m140 -6 c0 -11 -40 -22 -52 -15 -5 3 -6 10 -3 15 8 12 55 12 55 0z m490 -11 c0 -5 17 -7 38 -5 20 2 53 0 72 -5 57 -13 18 -15 -167 -9 -94 4 -109 9 -73 25 24 11 130 6 130 -6z m-276 0 c-7 -7 -19 -7 -35 -1 -23 9 -22 10 11 10 23 1 31 -2 24 -9z"/>
 <path d="M4498 6763 c12 -2 30 -2 40 0 9 3 -1 5 -23 4 -22 0 -30 -2 -17 -4z"/>
 <path d="M3564 6745 c-4 -8 -3 -31 0 -51 6 -30 10 -34 29 -28 12 3 23 7 24 8 1 1 -1 20 -4 44 -4 33 -10 42 -25 42 -10 0 -21 -7 -24 -15z"/>
 <path d="M2948 6743 c12 -2 32 -2 45 0 12 2 2 4 -23 4 -25 0 -35 -2 -22 -4z"/>
 <path d="M3442 6730 c0 -14 4 -36 8 -50 l8 -25 0 25 c0 14 -4 36 -8 50 l-8 25 0 -25z"/>
 <path d="M3469 6713 c9 -53 33 -57 30 -4 -2 30 -7 41 -19 41 -14 0 -16 -7 -11 -37z"/>
 <path d="M3515 6713 c6 -35 19 -52 37 -53 4 0 5 15 2 33 -9 51 -12 57 -30 57 -13 0 -15 -7 -9 -37z"/>
 <path d="M3630 6728 c0 -32 15 -52 33 -45 12 4 14 13 8 34 -9 36 -41 44 -41 11z"/>
 <path d="M3708 6739 c-10 -5 -18 -21 -18 -34 0 -21 5 -25 28 -25 26 0 28 2 24 35 -4 38 -8 40 -34 24z"/>
 <path d="M3260 6706 c0 -20 5 -36 10 -36 6 0 10 13 10 29 0 17 -4 33 -10 36 -6 4 -10 -8 -10 -29z"/>
 <path d="M3290 6721 c0 -43 10 -51 64 -51 l52 0 -4 35 -4 35 -54 0 c-47 0 -54 -3 -54 -19z"/>
 <path d="M3411 6720 c0 -14 4 -34 9 -45 7 -17 9 -16 9 10 0 17 -4 37 -9 45 -8 12 -10 10 -9 -10z"/>
 <path d="M3760 6706 c0 -38 9 -43 73 -44 25 0 27 3 24 37 -2 35 -3 36 -50 39 l-47 3 0 -35z"/>
 <path d="M3230 6703 c0 -18 5 -33 10 -33 13 0 13 30 0 50 -7 11 -10 7 -10 -17z"/>
 <path d="M3889 6723 c-1 -5 0 -16 1 -27 1 -11 -3 -15 -9 -12 -6 4 -11 3 -11 -3 0 -5 5 -13 10 -16 6 -3 10 -1 10 6 0 11 16 9 53 -6 25 -10 23 31 -2 45 -27 14 -31 13 -31 -7 0 -15 -2 -16 -9 -3 -6 8 -7 18 -5 22 3 4 3 8 0 8 -3 0 -7 -3 -7 -7z"/>
 <path d="M4241 6721 c-7 -5 -9 -11 -5 -13 8 -5 19 -5 74 2 8 1 4 6 -10 10 -34 11 -43 11 -59 1z"/>
 <path d="M3114 6704 c3 -9 6 -22 6 -30 0 -10 14 -14 50 -14 52 0 53 1 44 38 -6 19 -13 22 -56 22 -42 0 -49 -3 -44 -16z"/>
 <path d="M3090 6682 c0 -18 5 -32 10 -32 6 0 8 11 4 28 -10 39 -14 40 -14 4z"/>
 <path d="M3974 6684 c3 -9 6 -18 6 -20 0 -2 4 -4 9 -4 5 0 7 9 4 20 -3 11 -10 20 -15 20 -6 0 -7 -7 -4 -16z"/>
 <path d="M4011 6673 c0 -25 1 -26 9 -8 12 27 12 35 0 35 -5 0 -10 -12 -9 -27z"/>
 <path d="M4164 6689 c-8 -13 5 -29 24 -29 15 1 15 2 -2 15 -17 13 -13 14 35 8 30 -3 59 -9 64 -13 17 -12 139 -20 155 -10 18 11 15 12 -70 11 -46 0 -59 2 -45 9 18 7 16 9 -10 10 -16 1 -56 3 -88 5 -31 2 -60 -1 -63 -6z"/>
 <path d="M2800 6680 c0 -5 11 -10 25 -10 14 0 25 5 25 10 0 6 -11 10 -25 10 -14 0 -25 -4 -25 -10z"/>
 <path d="M4040 6666 c0 -17 5 -26 16 -26 10 0 14 7 12 22 -5 32 -28 35 -28 4z"/>
 <path d="M3030 6610 c0 -59 33 -170 50 -170 4 0 6 8 4 18 -7 24 43 27 51 2 3 -10 13 -21 21 -24 8 -3 12 -11 9 -16 -4 -6 8 -27 26 -47 43 -50 18 -57 -27 -8 -51 56 -51 36 1 -39 25 -36 45 -68 45 -71 0 -3 -9 -5 -20 -5 -14 0 -33 23 -67 81 -26 45 -49 76 -51 70 -2 -7 19 -50 47 -97 28 -47 51 -91 51 -98 0 -7 11 -22 25 -32 34 -25 33 -60 -1 -36 -6 4 -26 29 -45 56 -19 27 -46 65 -61 85 -15 20 -39 58 -53 84 -31 57 -44 57 -20 1 30 -71 35 -84 27 -84 -4 0 -23 30 -41 66 -32 62 -46 102 -58 167 -3 15 -11 27 -17 27 -24 0 -219 -123 -339 -213 -136 -102 -352 -310 -446 -431 -57 -72 -61 -80 -46 -96 23 -26 18 -53 -20 -104 -37 -47 -79 -76 -113 -76 -15 0 -36 -33 -90 -137 -150 -296 -228 -549 -268 -874 -22 -179 -15 -501 15 -675 90 -527 314 -971 681 -1348 332 -342 742 -577 1200 -690 205 -50 327 -66 550 -73 441 -12 847 80 1237 282 735 381 1230 1090 1338 1918 20 155 20 459 0 614 -62 473 -244 897 -544 1270 -83 103 -302 322 -361 361 -24 16 -16 6 24 -32 33 -31 57 -59 54 -62 -8 -8 -110 60 -144 95 -16 17 -33 31 -37 31 -10 0 26 -54 61 -92 14 -16 22 -28 17 -28 -21 0 -89 57 -140 117 -52 61 -67 93 -45 93 6 0 10 -5 10 -10 0 -14 81 -122 87 -116 3 2 -7 21 -21 43 -13 21 -30 57 -37 79 l-13 42 -31 -22 c-16 -11 -33 -26 -37 -32 -4 -7 -23 -15 -42 -18 -19 -4 -39 -13 -46 -21 -7 -9 -29 -15 -51 -15 -22 0 -39 -4 -39 -9 0 -5 -10 -9 -22 -9 -46 0 -103 -16 -118 -32 -8 -10 -38 -25 -65 -35 -46 -16 -53 -16 -85 -2 -19 9 -47 26 -61 38 -57 45 -46 10 17 -59 75 -82 71 -99 -6 -20 -27 28 -50 46 -50 40 0 -6 4 -13 9 -16 5 -3 23 -30 40 -60 17 -30 45 -71 62 -91 17 -19 29 -38 27 -41 -8 -7 -73 69 -100 115 -13 23 -26 41 -29 41 -9 0 43 -126 61 -148 8 -10 16 -25 18 -33 2 -8 12 -23 23 -35 22 -24 24 -34 7 -34 -14 1 -98 76 -98 88 0 4 -13 23 -30 42 -16 19 -40 58 -52 87 -13 29 -27 53 -31 53 -10 0 -2 -29 24 -87 11 -23 19 -46 19 -51 0 -5 9 -21 21 -36 11 -14 17 -26 14 -26 -4 0 2 -16 14 -35 19 -32 19 -35 3 -35 -11 0 -30 20 -47 50 -16 28 -33 50 -38 50 -4 0 -6 4 -3 8 3 5 -8 37 -24 71 -17 35 -30 69 -30 77 0 31 -17 10 -49 -62 -34 -74 -70 -124 -91 -124 -16 0 -12 15 18 72 35 67 86 197 79 204 -3 3 -14 -14 -25 -39 -19 -44 -38 -64 -49 -54 -3 3 4 15 14 27 11 11 26 40 32 63 7 23 17 50 22 60 8 14 5 17 -20 17 -15 0 -45 11 -65 25 -20 14 -45 25 -56 25 -51 0 -143 -57 -158 -98 -12 -33 -14 -80 -5 -95 4 -7 6 -24 4 -40 -2 -18 3 -29 14 -33 11 -5 13 -9 5 -14 -8 -5 -6 -24 6 -69 18 -62 18 -63 51 -59 18 2 33 0 33 -4 0 -4 -12 -8 -27 -8 -25 -1 -26 -2 -10 -11 24 -14 40 -56 28 -77 -7 -12 2 -27 37 -61 46 -47 87 -121 98 -178 7 -37 6 -36 119 -33 76 2 83 -15 10 -23 -34 -3 -37 -5 -17 -12 15 -5 22 -15 22 -32 0 -17 5 -24 16 -21 19 3 30 21 39 61 3 15 12 27 20 27 8 0 19 8 24 18 10 16 10 16 11 0 0 -9 -4 -19 -9 -22 -5 -3 -7 -15 -4 -26 4 -16 9 -18 19 -9 22 18 32 2 29 -53 -2 -34 -12 -69 -28 -98 -14 -25 -30 -70 -37 -100 -7 -30 -18 -75 -26 -100 -7 -25 -16 -65 -19 -89 -5 -32 -13 -45 -27 -49 -18 -4 -20 -11 -16 -62 4 -50 10 -63 52 -116 52 -62 85 -125 86 -159 0 -45 42 -57 106 -30 36 15 38 21 23 85 -7 30 144 5 175 -28 12 -15 15 -33 13 -80 -8 -125 -105 -264 -292 -419 -111 -92 -121 -104 -134 -178 -9 -44 -7 -55 14 -90 27 -48 73 -95 90 -95 30 0 39 -29 25 -85 l-13 -55 66 -67 67 -68 0 34 c0 101 102 472 155 566 16 28 33 59 39 70 6 11 21 35 34 53 13 17 21 32 18 32 -13 0 140 146 180 172 137 87 306 83 506 -11 36 -17 75 -31 87 -31 12 0 78 -27 146 -61 l123 -60 12 -50 c7 -27 16 -51 20 -54 4 -3 4 -24 -2 -47 -5 -23 -6 -53 -3 -65 3 -15 1 -23 -7 -23 -19 0 -50 -111 -36 -127 8 -10 6 -13 -6 -13 -22 0 -59 -76 -52 -106 5 -17 2 -24 -8 -24 -15 0 -64 -76 -69 -107 -2 -10 -33 -49 -70 -86 -37 -38 -65 -73 -62 -78 4 -5 -1 -9 -10 -9 -11 0 -14 -6 -10 -23 4 -15 1 -28 -9 -36 -9 -8 -16 -17 -16 -22 0 -12 -107 -144 -164 -202 -26 -25 -61 -50 -78 -55 -50 -13 -115 -111 -90 -136 4 -4 8 -20 9 -34 1 -15 4 -39 8 -53 5 -21 1 -31 -24 -55 -18 -16 -31 -39 -31 -52 0 -25 -29 -82 -42 -82 -4 0 -17 -18 -28 -39 -22 -45 -58 -75 -74 -62 -6 4 -23 11 -38 15 -27 6 -28 6 -88 -99 -9 -16 -47 -79 -84 -140 -43 -70 -65 -117 -62 -129 3 -11 -9 -43 -29 -77 -18 -32 -47 -87 -64 -123 -29 -62 -32 -66 -71 -72 -34 -6 -40 -10 -40 -31 0 -14 -4 -21 -10 -18 -5 3 -10 15 -10 26 0 16 -7 19 -52 19 -61 0 -72 6 -81 39 -8 32 27 102 48 95 8 -4 15 -1 15 6 0 6 -4 8 -10 5 -15 -9 -12 4 3 20 8 7 17 44 20 82 4 37 9 79 12 93 4 14 8 34 11 45 2 11 10 54 19 95 17 82 21 115 31 270 18 255 9 391 -31 475 -31 67 -25 61 -150 144 -82 55 -93 59 -131 54 -40 -5 -42 -4 -65 37 -13 24 -27 42 -31 42 -5 -1 -22 -2 -39 -2 -24 0 -33 -6 -45 -32 -8 -18 -21 -43 -28 -56 -17 -30 -11 -96 12 -136 18 -31 19 -31 101 -32 45 0 86 -5 89 -10 4 -5 21 -16 37 -24 33 -17 58 -60 49 -84 -5 -13 -11 -12 -42 9 -41 28 -93 33 -112 10 -10 -12 -7 -20 14 -45 61 -73 59 -156 -7 -227 l-41 -45 22 -17 c15 -11 21 -23 16 -34 -3 -9 -2 -17 3 -17 12 0 73 -60 73 -71 0 -5 -12 -9 -27 -9 -30 -1 -63 -20 -63 -38 0 -6 12 -12 27 -14 39 -4 37 -20 -7 -50 -76 -52 -93 -108 -54 -175 26 -45 30 -73 14 -103 -22 -41 -184 -140 -229 -140 -11 0 -23 -4 -26 -10 -3 -5 -24 -10 -45 -10 -29 0 -38 -4 -34 -14 4 -10 -12 -13 -73 -14 -69 0 -88 4 -158 36 -83 38 -185 99 -185 112 0 4 -7 11 -16 14 -12 5 -14 1 -8 -17 6 -21 6 -21 -14 3 l-20 25 -31 -23 c-17 -12 -31 -18 -31 -12 0 6 7 13 15 16 26 11 7 21 -40 22 -49 1 -77 13 -115 47 -14 12 -42 28 -62 34 -28 9 -38 19 -43 41 -4 17 -23 42 -46 61 -21 17 -39 35 -39 40 0 15 22 10 43 -8 19 -17 20 -17 8 5 -6 12 -15 22 -20 22 -15 0 -30 54 -29 105 1 65 -9 98 -28 91 -8 -3 -21 -3 -29 0 -12 5 -13 10 -1 32 15 30 14 56 -3 76 -9 10 -22 12 -49 5 -44 -10 -67 5 -39 26 17 12 17 14 1 23 -20 11 -10 32 15 32 37 0 43 24 16 64 l-25 37 35 14 c19 8 46 15 60 15 49 0 21 76 -34 95 -51 17 -50 33 1 37 30 2 42 7 40 17 -2 8 3 11 13 8 11 -5 15 0 15 18 0 14 -4 25 -10 25 -5 0 -10 7 -10 15 0 19 30 19 56 0 25 -19 34 -19 34 1 0 13 7 15 30 11 23 -5 32 -2 40 14 11 20 9 60 -5 92 -11 26 0 31 34 14 30 -15 31 -15 37 9 3 13 11 24 18 24 6 0 19 19 30 41 21 47 31 44 28 -10 -2 -22 2 -42 8 -46 5 -3 10 3 10 14 0 30 17 35 47 11 26 -20 26 -20 45 -1 23 25 23 31 -1 31 -19 0 -34 27 -47 83 -7 32 -11 32 -103 -1 -30 -11 -58 -27 -62 -35 -5 -8 -29 -20 -54 -27 -40 -11 -48 -11 -63 4 -23 20 -33 20 -77 -1 -21 -10 -45 -34 -60 -59 -33 -57 -158 -171 -217 -197 -36 -17 -48 -27 -48 -44 0 -12 -8 -27 -19 -32 -10 -6 -22 -23 -26 -38 -3 -16 -14 -36 -23 -46 -9 -10 -19 -42 -22 -70 -5 -47 -9 -54 -50 -84 -25 -18 -52 -38 -61 -45 -10 -7 -20 -25 -23 -40 -5 -22 -1 -30 28 -47 18 -12 36 -30 39 -40 7 -28 -20 -61 -48 -61 -14 0 -29 -8 -35 -20 -16 -29 -64 -51 -99 -44 -19 4 -37 1 -52 -10 -13 -9 -38 -16 -57 -16 -37 0 -102 24 -102 38 0 5 -19 12 -41 16 -58 9 -101 41 -94 69 5 17 -1 25 -25 35 -34 16 -39 44 -14 80 11 16 22 21 35 17 14 -5 21 0 29 20 13 35 13 35 -8 35 -33 0 -52 33 -52 87 0 32 -5 55 -14 62 -13 11 -13 19 -1 59 8 26 12 63 9 83 -4 23 -2 39 5 44 9 5 8 13 -3 30 -13 20 -13 26 3 56 10 19 28 35 40 37 11 2 21 6 21 8 0 11 -23 49 -34 56 -6 4 -11 16 -12 27 -1 24 56 45 167 60 80 11 144 5 271 -25 97 -23 145 -74 100 -106 -10 -7 -26 -25 -35 -39 -16 -24 -16 -27 1 -42 21 -19 28 -15 47 30 31 73 185 243 221 243 6 0 17 13 24 30 17 41 33 52 77 52 21 0 49 6 63 14 98 56 105 62 106 91 1 81 6 101 25 122 21 23 44 24 91 6 27 -11 48 43 48 125 0 116 -46 166 -172 190 -70 14 -138 39 -164 62 -11 10 -25 18 -31 18 -5 0 -18 9 -28 20 -13 14 -31 20 -62 20 -23 0 -43 3 -43 6 0 3 13 18 29 34 18 19 33 49 42 87 15 60 31 75 90 87 45 9 93 50 120 101 30 59 52 62 118 21 51 -33 65 -33 80 0 9 21 9 31 -2 48 -9 13 -14 45 -13 84 1 62 11 82 48 94 14 5 -2 58 -17 58 -27 0 -37 27 -24 68 10 36 10 43 -9 67 -17 21 -20 35 -15 79 5 47 1 63 -31 132 -21 43 -47 89 -58 101 l-20 22 27 24 28 23 -119 2 c-65 2 -120 5 -123 7 -2 3 56 5 129 5 127 0 135 1 167 26 20 15 40 23 51 19 12 -3 26 2 37 15 10 11 29 20 42 20 18 0 25 -7 30 -30 8 -43 23 -47 23 -6 0 38 10 46 56 39 30 -5 32 -4 55 62 17 48 30 70 49 80 38 20 50 38 55 81 4 29 15 48 44 74 37 33 77 91 52 76 -7 -5 -9 -1 -5 8 3 9 10 16 15 16 5 0 9 8 9 18 0 9 9 46 20 80 11 35 20 76 20 90 0 36 -17 93 -35 116 -13 18 -16 18 -54 3 -46 -19 -297 -42 -343 -32 l-30 7 21 -21 c12 -12 21 -31 21 -44 0 -26 55 -138 102 -210 24 -36 29 -50 20 -59 -9 -9 -15 -9 -26 2 -21 22 -61 100 -76 145 -7 22 -17 45 -22 50 -12 12 -5 -32 29 -180 27 -117 27 -119 24 -150 -3 -31 -84 168 -97 240 -5 22 -9 43 -10 48 -1 4 -2 27 -3 52 0 25 -5 45 -10 45 -12 0 -41 -80 -41 -115 0 -26 -2 -28 -15 -15 -13 13 -13 21 0 64 8 27 15 62 15 77 0 18 7 32 20 39 32 17 23 30 -19 30 -22 0 -43 5 -46 10 -3 6 -19 10 -35 10 -15 0 -30 4 -32 9 -1 4 -13 12 -25 15 -20 6 -23 4 -23 -20 0 -23 2 -25 15 -14 23 19 29 5 17 -42 -14 -54 -8 -61 14 -14 16 33 44 50 44 26 0 -20 -106 -149 -122 -149 -16 -1 -15 4 6 43 13 24 26 56 30 70 6 25 5 26 -13 16 -11 -5 -23 -15 -26 -20 -8 -13 -35 -13 -35 0 0 6 9 23 19 38 11 15 21 38 23 52 3 24 0 25 -47 25 -32 0 -59 6 -75 18 -13 9 -32 17 -42 17 -9 0 -20 5 -24 11 -3 6 -26 19 -50 29 -48 21 -64 53 -44 89 7 14 8 27 1 40 -6 10 -7 21 -4 25 3 3 1 6 -5 6 -8 0 -12 -21 -12 -60z m641 -292 c28 -55 74 -123 101 -148 l22 -20 -21 0 c-22 0 -90 95 -125 172 -23 52 -4 48 23 -4z m58 -7 c22 -31 27 -51 12 -51 -11 0 -24 17 -39 53 -15 36 1 35 27 -2z m1386 -317 c40 -5 46 -8 31 -16 -12 -7 -21 -7 -29 1 -6 6 -30 11 -53 11 -24 0 -46 4 -49 10 -4 6 5 8 22 5 15 -2 50 -7 78 -11z m128 -14 c16 0 26 -4 22 -10 -6 -10 -61 -3 -85 12 -11 7 -8 8 10 4 14 -3 38 -6 53 -6z m-63 -20 c0 -5 15 -11 33 -11 18 -1 24 -3 14 -6 -24 -6 -67 5 -67 17 0 6 5 10 10 10 6 0 10 -4 10 -10z m-14 -40 c58 -22 111 -37 117 -33 6 3 7 1 3 -5 -4 -7 0 -12 10 -12 18 0 304 -135 304 -144 0 -8 -29 4 -98 41 -54 30 -197 93 -209 93 -2 0 -11 -15 -19 -32 l-15 -33 6 37 6 36 -82 31 c-44 17 -86 31 -92 31 -17 1 -65 29 -50 30 7 0 61 -18 119 -40z m-1321 -28 c-11 -1 -78 -23 -150 -47 -191 -64 -267 -87 -273 -81 -3 4 2 6 10 6 9 0 21 7 28 15 7 8 23 15 36 15 14 0 32 4 42 9 44 24 289 97 307 92 l20 -5 -20 -4z m903 11 c-10 -2 -26 -2 -35 0 -10 3 -2 5 17 5 19 0 27 -2 18 -5z m66 -24 c-7 -11 -35 -11 -53 0 -10 6 -2 9 23 9 20 0 33 -4 30 -9z m-1717 -26 c-1 -16 0 -66 1 -112 2 -74 4 -82 20 -77 15 5 15 4 2 -6 -26 -21 -14 -93 36 -222 19 -49 33 -91 31 -93 -3 -2 -10 11 -17 29 -7 18 -22 53 -32 77 -11 24 -25 70 -31 102 -10 58 -11 59 -45 59 -33 0 -33 -1 -27 -32 4 -18 25 -68 46 -111 22 -43 39 -81 39 -85 0 -15 -64 106 -81 153 -19 54 -40 67 -69 40 -9 -9 -34 -19 -54 -22 -20 -3 -39 -9 -41 -13 -11 -17 32 -225 60 -294 6 -12 5 -17 -2 -13 -24 15 -64 201 -77 362 l-4 60 11 -47 c5 -27 14 -48 18 -48 5 0 34 14 65 31 31 17 69 32 83 34 62 8 61 6 55 136 -4 78 -3 119 4 119 5 0 10 -12 9 -27z m60 -138 c43 -158 93 -269 169 -377 32 -45 53 -78 47 -75 -33 20 -158 228 -192 320 -8 20 -18 27 -38 28 l-28 2 28 4 c15 2 27 5 27 6 0 1 -13 49 -30 107 -16 58 -29 116 -29 130 1 20 2 21 6 5 2 -11 21 -78 40 -150z m1773 115 c0 -5 -9 -10 -20 -10 -11 0 -20 5 -20 10 0 6 9 10 20 10 11 0 20 -4 20 -10z m385 -19 c2 -11 0 -21 -6 -21 -5 0 -9 12 -9 27 0 30 9 27 15 -6z m-462 2 c-13 -2 -33 -2 -45 0 -13 2 -3 4 22 4 25 0 35 -2 23 -4z m134 -40 c-20 -2 -52 -2 -70 0 -17 2 0 4 38 4 39 0 53 -2 32 -4z m-1579 -18 c-10 -10 -211 -76 -221 -72 -14 4 180 72 217 76 5 1 7 -1 4 -4z m-698 -41 c0 -14 -4 -23 -9 -20 -5 3 -7 15 -4 26 7 28 13 25 13 -6z m3005 6 c-4 -6 -3 -19 1 -28 4 -9 6 -29 5 -44 -2 -22 2 -28 18 -28 24 0 25 4 11 31 -6 11 -8 25 -3 32 5 8 9 4 14 -13 14 -49 10 -60 -17 -60 -25 0 -26 -2 -19 -37 14 -80 14 -87 1 -48 -8 22 -15 63 -16 90 l-2 50 -14 -30 -14 -30 5 33 c12 73 17 92 26 92 6 0 7 -5 4 -10z m-695 -20 c0 -12 -8 -12 -35 0 -18 8 -17 9 8 9 15 1 27 -3 27 -9z m495 -10 c3 -5 21 -10 38 -11 28 0 29 -1 11 -9 -12 -5 -30 -7 -40 -5 -11 2 -24 4 -30 4 -7 1 -14 8 -18 16 -6 17 29 22 39 5z m145 -47 c-11 -17 -11 -17 -6 0 3 10 7 28 7 40 2 22 2 22 6 0 2 -12 -1 -30 -7 -40z m-2866 -5 c-17 -65 -21 -417 -5 -497 13 -65 13 -81 1 -61 -43 74 -34 610 10 610 4 0 2 -24 -6 -52z m2306 42 c0 -5 10 -10 22 -10 12 0 19 -3 16 -6 -10 -9 -98 7 -92 17 7 12 54 11 54 -1z m-2258 -162 c-3 -133 2 -213 23 -418 3 -36 1 -32 -11 20 -17 74 -33 550 -18 550 5 0 8 -69 6 -152z m-136 74 c-12 -12 -18 8 -10 35 l8 28 4 -28 c2 -16 1 -31 -2 -35z m2449 48 c-3 -5 -21 -10 -38 -9 -27 0 -29 2 -12 9 28 12 57 12 50 0z m360 0 c-7 -12 -42 -12 -70 0 -15 6 -8 9 28 9 30 1 46 -3 42 -9z m385 -49 c30 -9 35 -16 37 -43 1 -18 5 -44 8 -58 4 -19 3 -21 -5 -10 -5 8 -10 24 -11 35 l0 20 -10 -20 c-7 -16 -8 -12 -6 18 3 38 3 39 -60 67 -35 16 -63 31 -63 35 0 3 17 -3 38 -13 20 -11 53 -24 72 -31z m-349 20 c-62 -4 -86 -10 -89 -21 -15 -44 -95 -90 -158 -90 -49 0 -123 31 -153 65 l-30 35 -100 0 c-56 0 -103 4 -106 10 -4 7 117 9 357 8 200 -1 325 -4 279 -7z m-2971 -95 c-9 -38 -20 -64 -24 -58 -4 7 -2 20 4 31 5 11 10 26 10 35 0 18 19 70 24 65 2 -2 -4 -35 -14 -73z m59 -6 c-6 -41 -9 -108 -7 -147 2 -40 -1 -73 -5 -73 -11 0 -5 270 7 288 14 23 15 9 5 -68z m409 -80 c6 -25 9 -46 7 -48 -5 -5 -33 92 -40 136 l-5 37 14 -40 c7 -22 18 -60 24 -85z m-578 38 c0 -5 -4 -8 -10 -8 -5 0 -10 10 -10 23 0 18 2 19 10 7 5 -8 10 -18 10 -22z m-83 16 c13 -4 20 -11 16 -20 -7 -18 -23 -18 -23 0 0 8 -8 17 -17 19 -10 3 -13 5 -8 6 6 0 20 -2 32 -5z m323 -14 c-14 -4 -34 -8 -45 -8 -16 0 -15 2 5 8 14 4 34 8 45 8 16 0 15 -2 -5 -8z m-166 -32 c-3 -4 -16 -8 -30 -8 -26 0 -27 -4 -25 -83 1 -31 -2 -46 -9 -42 -5 3 -10 33 -10 66 0 44 -3 60 -12 57 -9 -3 -15 -34 -18 -89 -6 -97 -17 -87 -16 13 l1 68 -47 0 c-65 0 -61 18 5 22 100 6 166 4 161 -4z m18 -94 c-3 -77 8 -202 24 -274 4 -18 3 -21 -4 -10 -29 45 -44 369 -18 370 1 0 0 -39 -2 -86z m90 -157 c-7 -13 -9 -5 -15 48 l-6 50 13 -45 c7 -25 11 -49 8 -53z m-165 36 c-3 -10 -5 -2 -5 17 0 19 2 27 5 18 2 -10 2 -26 0 -35z m213 -2518 c0 -14 -4 -25 -10 -25 -5 0 -10 11 -10 25 0 14 5 25 10 25 6 0 10 -11 10 -25z m-140 -45 c11 -11 20 -27 20 -35 0 -8 9 -24 20 -35 55 -55 -11 -123 -68 -70 -12 11 -26 20 -32 20 -6 0 -22 11 -35 25 -30 30 -34 89 -7 104 29 17 80 13 102 -9z m139 -10 c17 -17 31 -33 31 -37 0 -3 -10 3 -23 15 -24 23 -51 32 -29 10 7 -7 12 -23 11 -37 l-1 -26 -7 25 c-4 14 -13 24 -20 22 -6 -1 -21 7 -33 18 -18 16 -19 20 -6 20 9 0 18 -6 21 -12 2 -7 8 -10 12 -6 4 4 2 14 -5 23 -24 29 15 17 49 -15z m1 -205 c6 -8 9 -23 5 -35 -5 -16 -13 -20 -37 -18 -34 3 -54 27 -45 52 8 20 60 21 77 1z"/>
 <path d="M5233 5602 c-46 -2 -83 -6 -83 -11 0 -4 10 -17 23 -28 68 -62 217 -56 260 10 22 33 11 39 -61 35 -31 -2 -94 -4 -139 -6z"/>
 <path d="M2473 2634 c-3 -8 -1 -26 5 -40 16 -34 58 -33 74 2 11 22 10 28 -7 40 -25 19 -64 18 -72 -2z"/>
 <path d="M2562 2561 c-21 -15 -22 -19 -8 -30 29 -24 59 4 38 36 -5 8 -13 7 -30 -6z"/>
 <path d="M2652 2428 c6 -18 28 -21 28 -4 0 9 -7 16 -16 16 -9 0 -14 -5 -12 -12z"/>
 <path d="M4080 6650 c0 -11 5 -20 10 -20 6 0 10 9 10 20 0 11 -4 20 -10 20 -5 0 -10 -9 -10 -20z"/>
 <path d="M4783 6654 c-3 -9 -1 -25 6 -35 10 -17 8 -19 -17 -19 -16 0 -38 -10 -51 -21 -19 -18 -22 -28 -16 -58 7 -41 69 -136 94 -145 9 -3 22 -9 30 -12 9 -4 11 -2 7 5 -4 6 -1 11 8 11 8 0 23 -13 33 -30 9 -16 22 -30 29 -30 6 0 33 -16 59 -36 32 -25 58 -37 78 -36 36 1 63 22 28 22 -12 0 -19 4 -16 10 3 6 15 10 25 10 35 0 67 22 85 58 29 61 28 90 -5 135 -37 50 -78 75 -143 87 -45 9 -54 8 -93 -15 -48 -28 -59 -31 -47 -12 19 30 1 49 -47 51 -10 1 -16 14 -18 39 -3 38 -18 49 -29 21z"/>
 <path d="M4850 6636 c0 -33 2 -36 31 -36 28 0 30 2 27 33 -2 27 -8 33 -30 35 -26 3 -28 1 -28 -32z"/>
 <path d="M5568 6657 c-28 -11 -33 -22 -22 -51 9 -23 37 -19 64 9 19 20 21 27 10 40 -14 17 -15 17 -52 2z"/>
 <path d="M3350 6650 c0 -5 10 -10 23 -10 18 0 19 2 7 10 -19 13 -30 13 -30 0z"/>
 <path d="M3575 6645 c-33 -9 -59 -25 -78 -47 -25 -29 -28 -39 -25 -88 3 -38 11 -65 28 -88 23 -31 25 -32 101 -32 60 0 86 5 112 20 19 11 41 18 49 15 8 -3 27 4 43 17 16 12 34 23 40 23 21 2 44 17 59 41 15 21 15 29 0 81 -16 57 -17 58 -55 60 -46 3 -56 -9 -35 -41 27 -42 3 -38 -34 5 -34 40 -40 43 -96 45 -32 2 -81 -3 -109 -11z"/>
 <path d="M4680 6638 c0 -19 2 -20 10 -8 13 19 13 30 0 30 -5 0 -10 -10 -10 -22z"/>
 <path d="M4710 6635 c0 -20 5 -25 25 -25 14 0 25 4 25 9 0 5 3 16 6 25 5 13 -1 16 -25 16 -26 0 -31 -4 -31 -25z"/>
 <path d="M4966 6629 c-3 -18 -5 -33 -4 -34 2 -1 24 -5 51 -8 l47 -7 0 35 c0 32 -3 35 -29 35 -16 0 -36 2 -44 6 -10 3 -16 -5 -21 -27z"/>
 <path d="M3125 6642 c-5 -4 -20 -22 -33 -40 -18 -25 -20 -36 -12 -52 16 -30 30 -24 30 14 0 25 7 40 25 54 14 11 25 23 25 26 0 8 -23 7 -35 -2z"/>
 <path d="M4150 6631 c0 -10 7 -21 15 -25 10 -3 15 1 15 13 0 10 -7 21 -15 25 -10 3 -15 -1 -15 -13z"/>
 <path d="M4330 6640 c0 -13 11 -13 30 0 12 8 11 10 -7 10 -13 0 -23 -4 -23 -10z"/>
 <path d="M4560 6625 c0 -22 3 -25 28 -19 47 10 52 13 52 29 0 11 -11 15 -40 15 -36 0 -40 -2 -40 -25z"/>
 <path d="M4930 6623 c0 -22 2 -25 10 -13 13 20 13 40 0 40 -5 0 -10 -12 -10 -27z"/>
 <path d="M2981 6610 c-8 -24 -6 -44 9 -93 19 -62 60 -134 44 -77 -33 112 -39 149 -33 173 10 37 -6 34 -20 -3z"/>
 <path d="M3395 6624 c-22 -8 -48 -18 -58 -21 -24 -8 -47 -54 -47 -97 0 -40 7 -46 55 -51 20 -2 54 -12 77 -24 23 -11 43 -19 45 -17 2 2 -2 34 -8 73 -11 60 -10 73 4 103 14 26 15 35 5 42 -18 11 -27 10 -73 -8z"/>
 <path d="M5081 6602 l2 -37 7 35 c8 38 13 32 10 -12 -1 -14 3 -29 9 -33 7 -4 11 9 11 37 0 37 -3 44 -20 45 -17 2 -20 -4 -19 -35z"/>
 <path d="M3152 6610 c-28 -26 -29 -80 -4 -103 30 -27 47 -22 28 8 -23 35 -21 79 7 98 16 12 18 16 6 16 -8 1 -25 -8 -37 -19z"/>
 <path d="M3218 6609 c-41 -21 -44 -29 -27 -80 14 -42 47 -79 70 -79 14 0 16 7 11 45 -6 55 12 101 47 120 26 14 25 14 -19 14 -25 0 -61 -8 -82 -20z"/>
 <path d="M4500 6615 c0 -9 5 -15 11 -13 6 2 11 8 11 13 0 5 -5 11 -11 13 -6 2 -11 -4 -11 -13z"/>
 <path d="M5140 6606 c0 -13 -2 -31 -5 -39 -3 -7 15 -42 41 -76 l46 -61 -17 -43 c-9 -23 -19 -48 -22 -54 -7 -19 62 -17 77 2 7 8 18 15 26 15 17 0 28 60 20 105 -9 44 -67 85 -121 85 -25 0 -35 4 -35 16 0 10 6 14 15 10 11 -4 15 1 15 19 0 13 5 27 10 30 6 4 10 -7 10 -26 0 -24 3 -30 11 -22 6 6 9 21 7 34 -2 20 -10 25 -40 27 -35 3 -38 1 -38 -22z"/>
 <path d="M4417 6606 c-4 -10 -5 -21 -2 -24 9 -9 17 6 13 25 -3 17 -4 17 -11 -1z"/>
 <path d="M4450 6599 c0 -18 2 -19 15 -9 8 7 15 16 15 21 0 5 -7 9 -15 9 -9 0 -15 -9 -15 -21z"/>
 <path d="M5230 6585 c0 -19 2 -35 4 -35 2 0 6 16 8 35 2 19 0 35 -4 35 -4 0 -8 -16 -8 -35z"/>
 <path d="M5260 6603 c0 -10 -3 -28 -6 -40 -4 -14 -2 -23 5 -23 7 0 10 4 7 9 -4 5 -2 11 4 13 14 5 17 50 3 55 -8 3 -13 -3 -13 -14z"/>
 <path d="M5306 6613 c-9 -10 -7 -63 3 -63 11 0 20 59 11 65 -4 3 -10 2 -14 -2z"/>
 <path d="M5340 6581 c0 -23 5 -41 10 -41 6 0 10 14 10 30 0 17 0 33 1 37 0 4 -4 9 -10 11 -7 2 -11 -12 -11 -37z"/>
 <path d="M5382 6570 c1 -26 9 -59 21 -78 14 -24 18 -44 14 -73 -3 -21 -2 -39 2 -39 16 0 43 40 51 75 7 30 4 40 -15 63 -17 20 -20 30 -12 43 6 10 7 24 2 35 -8 16 -9 15 -13 -11 l-4 -30 -13 30 -13 30 -2 -30 -2 -30 -8 30 c-7 27 -8 25 -8 -15z"/>
 <path d="M4052 6575 c-17 -37 -13 -56 4 -20 l15 30 -5 -40 c-4 -25 -16 -49 -35 -68 l-29 -30 34 -32 c28 -27 34 -40 35 -76 0 -24 1 -59 2 -77 1 -17 0 -32 -3 -32 -5 0 -35 -102 -45 -157 -4 -21 -3 -33 4 -33 6 0 11 -4 11 -10 0 -5 -8 -10 -18 -10 -10 0 -37 -16 -60 -36 -65 -56 -54 -104 23 -104 28 0 47 -6 58 -18 27 -30 20 -34 -20 -12 -47 25 -61 25 -93 0 -33 -26 -48 -25 -24 1 19 22 19 22 -2 11 -24 -13 -74 -68 -74 -82 0 -5 5 -12 10 -15 14 -9 1 -27 -13 -18 -7 3 -3 -3 7 -15 22 -25 28 -28 20 -8 -6 14 20 46 38 46 6 0 3 -9 -7 -20 -15 -17 -16 -23 -5 -33 9 -8 11 -9 6 0 -3 6 -2 14 4 18 9 5 14 -7 11 -27 0 -4 6 -5 14 -2 13 5 13 8 0 21 -19 18 -19 20 4 26 15 3 18 1 14 -12 -5 -13 -3 -14 8 -3 16 14 33 16 24 2 -3 -5 -1 -10 4 -10 6 0 11 4 11 9 0 5 7 12 16 15 12 5 15 2 10 -9 -6 -18 6 -13 37 13 10 9 17 11 17 4 0 -6 -4 -14 -10 -17 -5 -3 -10 -12 -9 -18 0 -9 2 -9 6 1 2 6 8 12 13 12 5 0 10 -6 13 -12 2 -7 3 -5 2 4 -2 10 1 21 6 24 5 3 9 -2 9 -10 0 -22 9 -20 39 7 l26 22 -19 -22 c-11 -13 -15 -23 -11 -23 5 0 20 10 34 23 14 12 19 14 12 5 -10 -13 -10 -18 -2 -18 7 0 10 -4 7 -9 -3 -5 1 -12 9 -15 12 -4 13 -2 5 13 -7 14 -5 22 7 32 14 12 16 12 8 -1 -6 -12 -5 -12 5 -3 13 12 13 11 -33 138 -14 37 -14 41 9 75 23 33 23 36 7 49 -17 12 -16 13 4 8 25 -6 42 21 21 35 -9 5 -7 8 8 8 16 0 23 8 28 31 8 44 8 45 -11 65 -11 11 -14 19 -7 21 8 3 4 27 -12 76 -22 70 -23 72 -53 69 -41 -3 -39 4 10 29 33 16 40 25 36 41 -4 15 2 27 20 41 22 18 25 26 20 64 -2 25 -10 50 -16 56 -6 6 -37 14 -69 18 -31 4 -68 10 -83 14 -21 5 -27 2 -37 -20z m66 -203 c2 -7 -2 -10 -12 -6 -9 3 -16 11 -16 16 0 13 23 5 28 -10z m-8 -37 c7 -8 8 -15 2 -15 -5 0 -15 7 -22 15 -7 8 -8 15 -2 15 5 0 15 -7 22 -15z m-10 -185 c12 -8 11 -10 -7 -10 -12 0 -25 5 -28 10 -8 13 15 13 35 0z m-27 -202 c7 -49 -8 -49 -20 0 -11 41 -6 76 7 51 4 -8 10 -31 13 -51z"/>
 <path d="M4686 6581 c-14 -15 -16 -29 -11 -59 6 -36 4 -40 -23 -51 -20 -8 -36 -9 -55 -2 -22 9 -27 8 -27 -4 0 -12 14 -15 58 -15 52 -1 55 -2 38 -15 -11 -8 -29 -15 -40 -15 -31 0 -13 -9 36 -18 35 -7 45 -6 45 5 0 7 -4 13 -9 13 -4 0 -8 7 -8 15 0 7 -7 18 -16 23 -14 8 -14 10 -1 15 15 6 40 -27 61 -78 6 -14 10 -16 13 -7 3 7 -7 30 -21 51 -39 56 -49 100 -30 129 20 30 13 38 -10 13z"/>
 <path d="M4523 6558 c4 -10 2 -18 -2 -18 -5 0 -11 6 -14 13 -2 6 -8 8 -13 4 -4 -4 -2 -18 5 -30 10 -17 6 -15 -18 7 -17 16 -34 26 -38 22 -5 -4 1 -14 11 -22 11 -8 15 -14 9 -14 -7 0 -18 7 -27 15 -15 16 -36 20 -36 8 0 -4 10 -17 22 -30 12 -13 16 -23 10 -23 -6 0 -22 15 -35 34 -17 25 -27 32 -37 26 -12 -7 -11 -13 8 -33 12 -13 22 -27 22 -33 -1 -5 -14 6 -30 25 -16 19 -33 32 -37 28 -3 -4 6 -20 20 -35 15 -16 27 -32 27 -38 -1 -5 -16 9 -35 31 -39 46 -58 42 -24 -6 22 -31 22 -32 3 -46 -16 -12 -17 -16 -6 -34 8 -12 11 -23 8 -26 -2 -3 -11 4 -18 16 -13 21 -28 28 -28 12 0 -4 11 -20 24 -34 15 -16 21 -29 15 -33 -6 -4 -1 -16 12 -30 12 -13 20 -27 16 -30 -4 -4 -16 4 -27 17 l-21 24 16 -33 c9 -18 13 -37 9 -43 -3 -6 2 -19 12 -30 10 -11 12 -19 5 -19 -6 0 -20 14 -31 32 -15 25 -16 34 -7 41 9 6 8 7 -3 4 -9 -2 -14 -14 -13 -26 2 -15 -1 -20 -9 -15 -7 4 -8 3 -4 -5 4 -6 12 -9 17 -6 5 4 9 -1 9 -10 0 -9 -4 -13 -10 -10 -5 3 -10 1 -10 -4 0 -6 6 -11 13 -11 20 0 53 -27 44 -37 -5 -4 -15 1 -23 11 -17 24 -22 20 -27 -24 -6 -49 -18 -93 -29 -107 -5 -7 -7 -17 -3 -23 3 -5 -1 -10 -9 -10 -13 0 -13 -6 3 -43 10 -24 22 -63 26 -87 8 -55 45 -132 59 -127 6 2 17 -2 24 -10 8 -7 18 -10 23 -7 6 3 10 0 8 -7 -1 -8 -1 -23 0 -34 2 -19 2 -19 20 3 11 12 23 22 27 22 4 0 3 -5 -4 -12 -7 -7 -12 -19 -12 -27 0 -10 6 -8 19 7 10 12 22 22 27 22 4 0 3 -5 -4 -12 -15 -15 -16 -31 -1 -22 6 3 15 0 20 -7 6 -10 9 -11 9 -1 0 6 4 12 10 12 5 0 9 -5 7 -11 -1 -6 5 -14 13 -16 12 -3 12 -2 2 5 -10 7 -10 11 3 22 12 10 15 10 15 0 0 -9 7 -7 22 6 19 15 20 16 9 2 -20 -26 2 -22 26 5 12 12 18 28 14 37 -14 34 -71 108 -96 124 -21 14 -25 23 -21 42 8 32 -22 77 -64 94 -30 13 -44 35 -14 23 14 -5 15 -3 3 18 -7 13 -12 30 -11 37 2 6 -2 12 -8 12 -5 0 -10 5 -10 11 0 5 5 7 10 4 6 -3 10 5 10 19 0 14 -4 27 -9 31 -6 3 -10 13 -10 23 0 9 -2 39 -5 66 -9 89 42 156 142 188 l38 12 -4 60 c-2 37 -10 67 -19 76 -14 13 -15 13 -10 -2z m-197 -487 c-3 -5 -15 -11 -26 -14 -17 -4 -19 -3 -9 9 12 15 44 20 35 5z m4 -41 c0 -5 -7 -10 -15 -10 -8 0 -15 5 -15 10 0 6 7 10 15 10 8 0 15 -4 15 -10z m17 -78 c-10 -10 -17 -24 -17 -30 0 -7 -4 -12 -10 -12 -12 0 -12 2 0 34 5 14 17 26 26 26 16 0 16 -1 1 -18z m135 -99 c10 -9 18 -21 18 -26 0 -6 7 -18 16 -28 9 -10 14 -26 12 -36 -3 -14 -9 -8 -25 22 -32 62 -56 79 -99 71 -24 -5 -34 -4 -29 3 10 17 86 13 107 -6z m61 -166 c-3 -4 -8 -6 -11 -3 -3 3 -11 1 -19 -5 -13 -11 -19 1 -7 14 9 9 43 4 37 -6z"/>
 <path d="M5570 6551 c0 -10 53 -51 66 -51 4 0 -5 14 -21 30 -29 30 -45 38 -45 21z"/>
 <path d="M5485 6511 c11 -23 12 -36 4 -61 -14 -38 -4 -53 11 -16 14 39 12 72 -6 90 -23 24 -26 19 -9 -13z"/>
 <path d="M3918 6500 c-9 -17 -13 -30 -8 -30 11 0 32 38 28 50 -2 5 -11 -4 -20 -20z"/>
 <path d="M5292 6523 c32 -63 40 -92 35 -135 -7 -57 2 -60 45 -18 27 27 30 36 25 71 -8 61 -31 89 -73 89 -20 0 -34 -3 -32 -7z"/>
 <path d="M3956 6504 c-6 -16 3 -24 30 -24 35 0 38 27 4 32 -17 3 -31 -1 -34 -8z"/>
 <path d="M4646 6513 c-11 -11 -6 -23 9 -23 8 0 15 4 15 9 0 13 -16 22 -24 14z"/>
 <path d="M4290 6488 c0 -8 7 -21 15 -28 19 -16 19 -1 0 24 -12 16 -15 17 -15 4z"/>
 <path d="M3908 6443 c12 -2 32 -2 45 0 12 2 2 4 -23 4 -25 0 -35 -2 -22 -4z"/>
 <path d="M1642 6392 c-31 -31 -43 -53 -51 -94 -15 -70 -4 -100 48 -133 49 -30 64 -31 154 -4 76 22 137 70 137 106 0 23 -83 123 -117 141 -14 8 -49 16 -78 19 -51 5 -54 4 -93 -35z"/>
 <path d="M4233 6359 c-8 -8 -8 -20 -1 -40 13 -37 28 -37 28 -1 0 37 -13 55 -27 41z"/>
 <path d="M5590 6364 c1 -12 18 -32 59 -69 24 -21 31 -24 23 -10 -13 25 -82 92 -82 79z"/>
 <path d="M3591 6274 c1 -43 5 -90 10 -104 5 -15 6 14 2 75 -7 122 -13 137 -12 29z"/>
 <path d="M4759 6327 c-4 -37 11 -127 21 -127 5 0 6 16 3 35 -3 19 -3 42 1 51 6 16 8 15 21 -2 8 -10 15 -27 15 -36 0 -9 14 -40 30 -68 17 -28 30 -53 30 -57 0 -11 63 -103 68 -98 3 2 -3 16 -13 31 -32 49 -66 161 -69 226 0 20 -3 38 -6 41 -3 2 -26 7 -52 10 -35 5 -48 3 -49 -6z"/>
 <path d="M4715 6207 c-8 -21 -22 -53 -30 -73 -17 -42 -19 -52 -6 -38 14 13 62 137 56 142 -3 3 -12 -11 -20 -31z"/>
 <path d="M3690 6143 c0 -5 11 -21 25 -38 l25 -30 -21 38 c-20 36 -29 45 -29 30z"/>
 <path d="M4200 5921 c0 -17 4 -32 9 -36 11 -6 19 22 13 48 -7 28 -22 20 -22 -12z"/>
 <path d="M4245 5820 c-8 -14 4 -52 15 -45 5 3 12 -4 15 -16 4 -11 9 -18 11 -16 7 7 -18 57 -29 57 -5 0 -7 7 -3 15 6 17 0 20 -9 5z"/>
 <path d="M4216 5742 c-7 -12 12 -38 21 -28 4 5 2 11 -5 13 -6 3 -10 9 -6 14 3 5 3 9 0 9 -3 0 -7 -4 -10 -8z"/>
 <path d="M3754 5683 c-36 -4 -42 -8 -47 -31 -3 -15 -13 -36 -21 -47 -15 -19 -16 -18 -32 23 -18 45 -28 50 -58 27 -11 -8 -31 -15 -46 -15 -16 0 -42 -16 -72 -43 l-47 -43 43 -83 c37 -70 43 -92 45 -149 1 -46 8 -78 22 -101 11 -19 18 -43 16 -53 -4 -14 7 -22 51 -38 65 -24 118 -59 89 -60 -9 0 -34 9 -55 20 l-37 20 -6 -42 c-4 -29 -14 -48 -35 -65 l-29 -24 30 7 c17 4 54 22 82 40 29 19 64 36 78 40 16 4 31 18 39 38 8 19 29 39 55 54 53 28 54 28 48 -4 -4 -20 -1 -25 12 -21 9 3 37 11 64 18 35 10 47 18 47 32 0 53 111 79 147 34 23 -30 45 -43 37 -23 -8 21 29 30 110 28 38 -1 72 1 76 3 4 3 1 32 -7 66 -8 34 -12 64 -9 67 7 6 26 -43 26 -66 0 -40 14 -64 46 -77 21 -8 36 -23 39 -38 5 -18 16 -27 38 -31 17 -3 35 -2 40 3 16 16 96 -18 111 -48 18 -33 46 -56 77 -64 23 -6 25 -4 21 28 -4 30 -1 36 22 45 14 5 27 17 27 27 2 31 8 56 24 113 8 30 15 68 15 85 1 16 10 46 20 65 38 70 50 100 50 127 -1 26 -1 27 -15 9 -8 -11 -20 -16 -30 -12 -10 3 -29 -3 -44 -14 -29 -20 -51 -12 -51 17 0 20 -49 63 -79 69 -21 5 -29 1 -40 -19 -18 -33 -59 -34 -67 -1 -7 28 -32 38 -99 39 -27 0 -59 5 -70 10 -18 8 -19 7 -6 -8 7 -9 9 -17 3 -17 -5 0 -15 7 -22 15 -7 8 -16 12 -21 9 -5 -3 -9 0 -9 5 0 6 -5 11 -11 11 -8 0 -8 -5 1 -15 7 -8 16 -13 20 -10 4 2 15 -4 24 -14 13 -15 14 -20 4 -24 -10 -3 -10 -8 3 -23 9 -10 20 -26 24 -34 15 -28 -32 20 -61 61 -15 22 -29 37 -32 35 -5 -5 30 -58 63 -96 20 -23 39 -60 31 -60 -2 0 -23 25 -46 55 -24 31 -45 53 -48 50 -3 -2 1 -12 8 -21 10 -12 11 -17 2 -23 -8 -5 -2 -18 19 -42 30 -34 30 -34 10 -2 -12 17 -21 34 -21 38 0 11 29 -15 51 -47 16 -22 17 -27 5 -22 -19 7 -21 -7 -3 -26 6 -8 0 -4 -15 9 -34 30 -37 19 -5 -18 26 -31 83 -168 74 -177 -10 -11 -37 17 -37 38 0 38 -42 99 -100 145 -58 47 -59 48 -39 66 13 12 19 32 20 60 0 23 4 63 8 89 7 45 7 46 -21 52 -63 12 -108 -17 -108 -70 0 -29 -34 -10 -41 22 -3 17 -9 36 -13 42 -9 15 -182 16 -191 2 -3 -5 -17 -10 -30 -10 -13 0 -27 5 -30 10 -6 10 -28 10 -111 3z m-154 -138 c0 -20 24 -19 40 0 9 10 17 12 23 6 5 -5 24 -7 42 -4 l33 5 -5 -46 -6 -46 32 0 c19 0 30 -4 26 -10 -3 -5 -15 -10 -26 -10 -18 0 -25 -11 -13 -23 3 -3 19 -1 35 5 17 6 33 8 36 4 3 -3 -8 -11 -25 -17 -30 -10 -31 -13 -29 -62 l2 -52 -37 -3 c-42 -4 -43 -5 -28 -33 15 -26 -4 -24 -24 4 l-17 22 6 -22 c7 -26 -10 -32 -19 -8 -5 13 -10 14 -27 5 -30 -17 -51 -5 -43 24 4 17 -1 31 -16 46 -12 12 -24 38 -26 59 -13 129 -12 131 7 131 10 0 24 9 31 20 15 24 28 26 28 5z"/>
 <path d="M3670 5501 c0 -11 -4 -23 -10 -26 -5 -3 -10 3 -10 14 0 14 -6 21 -20 21 -13 0 -20 -7 -20 -20 0 -23 -18 -27 -26 -5 -13 32 -34 16 -34 -26 0 -47 16 -83 32 -73 8 5 9 1 5 -10 -8 -19 20 -96 35 -96 5 0 7 8 3 19 -4 15 1 20 27 25 19 4 34 2 39 -5 3 -6 15 -9 25 -7 25 4 34 78 10 78 -9 0 -13 6 -10 14 3 8 -5 21 -18 30 -12 9 -18 16 -12 16 5 0 10 16 10 35 0 22 -5 35 -13 35 -7 0 -13 -9 -13 -19z"/>
 <path d="M4350 5683 c0 -5 5 -15 10 -23 8 -12 10 -11 10 8 0 12 -4 22 -10 22 -5 0 -10 -3 -10 -7z"/>
 <path d="M4579 5654 c-16 -18 -19 -25 -9 -24 27 4 41 0 35 -10 -3 -5 -2 -10 4 -10 5 0 13 5 16 10 3 6 1 10 -5 10 -7 0 -7 7 1 23 l12 22 -23 -20 -23 -20 12 23 c15 29 10 28 -20 -4z"/>
 <path d="M4056 5194 c-32 -32 -12 -61 49 -71 32 -5 36 -4 33 13 -2 12 2 18 10 16 9 -2 6 8 -8 28 -24 34 -59 40 -84 14z m31 -20 c-9 -9 -28 6 -21 18 4 6 10 6 17 -1 6 -6 8 -13 4 -17z"/>
 <path d="M4216 5203 c-15 -4 -17 -11 -12 -36 4 -17 11 -36 18 -42 8 -7 9 -1 4 23 l-6 34 78 -7 c109 -9 122 -12 122 -35 0 -10 5 -22 10 -25 12 -8 13 35 1 54 -5 7 -46 19 -92 27 -88 14 -93 15 -123 7z"/>
 <path d="M4285 5140 c-15 -17 -16 -20 -3 -20 9 0 18 9 21 20 3 11 4 20 3 20 -2 0 -11 -9 -21 -20z"/>
 <path d="M3812 5124 c-26 -18 -31 -84 -8 -104 12 -9 15 -8 15 7 0 10 4 38 10 63 5 25 8 46 7 47 -1 2 -12 -4 -24 -13z"/>
 <path d="M3929 5131 c-43 -14 -69 -31 -69 -46 0 -18 35 -15 53 5 10 10 9 11 -2 5 -10 -5 -12 -4 -7 4 4 6 11 9 16 6 5 -3 11 -1 15 5 4 6 11 8 16 5 15 -10 10 -23 -8 -27 -11 -2 -14 -6 -7 -10 6 -4 26 8 44 27 l34 35 -30 -1 c-16 0 -41 -4 -55 -8z"/>
 <path d="M4570 5109 c0 -5 6 -7 13 -3 10 6 10 4 0 -7 -17 -18 -16 -32 1 -26 8 3 17 -1 20 -10 4 -9 9 -14 11 -11 7 7 -25 68 -36 68 -5 0 -9 -5 -9 -11z"/>
 <path d="M4505 5099 c-3 -5 1 -6 9 -3 9 3 16 1 16 -6 0 -6 5 -8 10 -5 6 3 10 9 10 13 0 11 -39 12 -45 1z"/>
 <path d="M4015 5076 c-44 -12 -95 -29 -112 -37 -47 -20 -136 -98 -164 -142 -13 -21 -45 -59 -71 -83 -29 -27 -48 -54 -48 -67 0 -12 -4 -29 -9 -36 -6 -10 -8 1 -4 30 4 28 16 56 34 77 43 49 35 53 -10 5 -36 -41 -61 -98 -61 -141 0 -24 25 -74 33 -66 3 4 -1 18 -10 31 -16 24 -16 25 2 22 11 -2 22 -15 26 -29 l7 -25 1 26 c1 14 -3 29 -7 35 -5 5 -3 25 4 44 l13 35 1 -55 c0 -30 4 -72 9 -92 6 -26 5 -39 -3 -42 -6 -3 -1 -3 12 0 17 4 22 1 22 -14 0 -18 24 -37 41 -34 4 1 9 -13 13 -30 3 -17 15 -37 26 -45 22 -15 28 -39 8 -27 -7 4 -6 -1 3 -12 21 -25 59 -121 59 -148 0 -12 9 -29 20 -39 12 -10 18 -23 14 -29 -5 -8 -2 -9 9 -5 10 3 17 2 17 -2 0 -5 -6 -12 -12 -14 -8 -3 -6 -6 5 -6 9 -1 17 -6 17 -12 0 -5 -5 -7 -12 -3 -7 4 -2 -7 11 -24 12 -18 27 -29 33 -26 6 4 8 3 5 -3 -4 -6 0 -19 9 -29 14 -18 15 -18 9 6 -5 19 -4 22 4 10 6 -8 11 -22 11 -30 0 -8 11 -27 24 -41 13 -14 29 -36 36 -49 l13 -24 24 30 c14 18 21 22 17 10 -5 -14 -4 -17 5 -12 7 4 11 15 9 24 -4 19 40 65 53 56 5 -2 15 11 23 29 8 19 19 38 26 42 16 10 31 -15 24 -38 -5 -16 -3 -17 15 -8 11 7 20 15 19 19 -1 4 2 17 6 30 8 25 27 25 34 1 3 -11 2 -11 -6 -1 -7 11 -10 10 -16 -3 -8 -23 -8 -27 3 -21 5 4 11 1 13 -5 3 -8 17 -3 41 12 27 18 41 37 53 72 8 26 19 47 24 47 4 0 7 22 7 49 -1 27 -5 44 -9 38 -4 -7 -8 2 -8 20 0 17 -4 35 -10 38 -5 3 -10 12 -10 18 0 7 7 4 14 -5 18 -24 26 -23 26 4 0 26 48 91 61 82 6 -3 19 2 30 12 18 16 21 16 36 2 13 -14 14 -25 5 -77 -13 -70 -48 -129 -66 -111 -8 8 -6 14 7 21 14 8 15 14 7 24 -8 10 -7 23 5 50 17 42 20 68 5 45 -8 -12 -10 -12 -10 5 -1 38 -21 -12 -29 -72 -9 -59 9 -142 23 -108 3 10 9 15 12 12 3 -3 1 -15 -6 -26 -6 -12 -7 -21 -1 -21 5 0 12 6 14 13 4 9 6 9 6 -1 1 -7 6 -10 12 -6 8 5 8 9 -1 14 -9 6 -8 15 4 41 8 19 20 55 27 81 13 55 33 55 23 1 -4 -24 -3 -34 3 -30 6 4 14 26 17 49 7 45 21 76 31 67 3 -3 -1 -24 -9 -47 -13 -35 -13 -40 0 -35 8 3 14 1 14 -5 0 -5 -7 -13 -16 -16 -10 -4 -13 -13 -9 -26 4 -11 2 -20 -4 -20 -6 0 -11 -6 -11 -13 0 -7 -14 -27 -30 -46 -27 -29 -29 -36 -21 -67 6 -21 6 -47 0 -66 -5 -17 -5 -36 -1 -42 12 -15 32 -89 32 -115 0 -28 6 -27 36 7 61 68 87 139 63 169 -6 7 -23 13 -38 13 -14 0 -33 5 -41 10 -12 7 -8 10 15 10 31 0 47 16 168 173 26 34 51 67 56 73 47 59 67 196 46 309 -21 108 -118 244 -198 276 -23 9 -80 33 -127 52 -124 51 -140 54 -310 55 -131 0 -167 -3 -235 -22z m449 -91 c7 -18 -5 -20 -22 -3 -7 7 -12 8 -12 4 0 -5 12 -19 26 -31 33 -28 27 -59 -8 -46 -28 10 -54 52 -45 74 8 21 53 22 61 2z m-355 -762 c45 -14 81 -29 81 -33 0 -10 -68 4 -114 23 -21 10 -51 17 -66 17 -31 0 -80 -34 -80 -56 0 -8 -7 -14 -15 -14 -21 0 -19 12 6 44 41 53 76 56 188 19z m-56 -49 c-7 -3 -9 -12 -6 -20 4 -10 0 -12 -11 -8 -27 10 -17 35 13 33 10 0 11 -3 4 -5z m612 -64 c0 -7 -6 -15 -12 -17 -8 -3 -13 4 -13 17 0 13 5 20 13 18 6 -3 12 -11 12 -18z"/>
 <path d="M3700 5033 c-83 -55 -141 -115 -126 -130 3 -3 38 18 77 46 39 29 82 57 96 62 14 5 23 15 21 22 -7 18 -40 18 -68 0z"/>
 <path d="M3699 4941 c-74 -57 -116 -98 -131 -126 -5 -11 7 -1 29 21 21 23 66 63 100 88 56 42 82 66 70 66 -3 0 -33 -22 -68 -49z"/>
 <path d="M3352 4768 l-22 -40 21 5 c31 8 91 -28 109 -65 12 -25 13 -41 5 -65 -5 -18 -15 -33 -22 -33 -7 0 -17 -9 -24 -21 -10 -19 -16 -20 -67 -14 -67 8 -97 31 -114 87 -12 41 -30 47 -62 23 -18 -13 -23 -61 -17 -152 2 -40 62 -37 96 5 22 28 155 -4 155 -36 0 -4 10 -12 22 -17 17 -8 23 -19 24 -49 1 -47 18 -61 90 -76 45 -10 58 -18 79 -47 13 -20 21 -41 17 -47 -11 -17 -11 -96 0 -96 6 0 8 20 6 45 -2 25 0 45 3 45 10 0 19 -40 19 -84 0 -30 -3 -37 -15 -32 -8 3 -15 1 -15 -3 0 -5 6 -11 13 -14 9 -3 8 -12 -5 -36 -9 -17 -12 -31 -7 -31 25 0 77 -52 81 -81 8 -50 -32 -89 -88 -89 -24 0 -44 -4 -44 -10 0 -20 -18 -10 -24 13 -3 13 -13 41 -22 63 -10 21 -16 53 -15 69 2 23 0 27 -9 18 -7 -6 -19 -9 -26 -6 -8 3 -14 3 -14 -1 0 -6 43 -98 66 -139 23 -41 27 -93 9 -111 -8 -8 -15 -21 -15 -29 0 -33 -13 -47 -42 -47 -17 0 -27 -4 -23 -10 11 -18 45 -11 69 15 13 14 30 25 39 25 12 0 14 9 11 43 -6 61 18 82 95 82 52 0 61 -4 83 -29 l25 -29 19 31 c10 18 23 32 28 32 5 0 2 6 -7 13 -10 6 -20 28 -23 48 -5 32 -3 38 16 44 15 5 20 13 17 26 -7 27 11 34 35 12 20 -16 21 -17 15 0 -4 9 -2 17 3 17 9 0 14 -14 11 -32 0 -4 6 -5 14 -2 13 5 13 9 0 27 -20 29 -19 43 2 26 13 -11 12 -6 -4 21 -32 52 -48 58 -76 32 -32 -30 -83 -29 -122 3 -26 22 -29 30 -30 81 0 53 2 58 30 75 17 10 38 18 48 18 15 1 17 7 11 39 -3 20 -11 49 -17 63 -10 25 -14 26 -70 22 -38 -2 -64 1 -74 9 -8 7 -25 17 -37 23 -11 6 -21 20 -21 30 0 11 -3 25 -7 31 -5 7 -1 29 8 49 l15 37 -40 58 c-23 32 -41 63 -41 68 0 6 -6 17 -13 24 -7 7 -23 27 -35 45 -13 18 -35 41 -50 52 l-28 19 -22 -40z"/>
 <path d="M5109 4776 c17 -18 22 -32 17 -50 -5 -22 -3 -26 15 -26 16 0 20 5 16 20 -3 11 -1 20 4 20 5 0 9 6 9 14 0 19 -38 46 -64 46 -18 0 -18 -1 3 -24z"/>
 <path d="M5184 4734 c-4 -19 -13 -38 -20 -41 -8 -3 -14 -12 -14 -19 0 -8 -11 -19 -25 -24 -16 -6 -25 -17 -25 -32 0 -17 3 -19 12 -10 7 7 24 12 39 12 33 0 40 16 44 93 4 65 -1 74 -11 21z"/>
 <path d="M5091 4753 c0 -5 4 -17 9 -28 8 -18 9 -17 9 8 1 15 -3 27 -9 27 -5 0 -10 -3 -9 -7z"/>
 <path d="M3286 4690 c-37 -26 -47 -50 -21 -50 11 0 14 -7 9 -25 -5 -21 -3 -25 15 -25 15 0 19 -4 14 -16 -5 -14 -1 -16 20 -12 16 3 31 0 38 -8 12 -15 39 -19 39 -6 0 4 -5 13 -12 20 -9 9 -5 12 20 12 29 0 48 20 20 20 -8 1 -5 6 6 15 11 9 15 18 10 27 -5 7 -9 18 -10 23 0 6 -2 16 -2 23 -1 6 -10 12 -20 12 -10 0 -22 3 -26 8 -16 15 -67 6 -100 -18z m106 -27 c23 -21 23 -36 -2 -58 -25 -23 -67 -13 -82 20 -21 47 42 76 84 38z"/>
 <path d="M3333 4659 c-17 -17 2 -49 28 -49 16 0 20 5 17 27 -3 30 -26 41 -45 22z"/>
 <path d="M5045 4712 c-13 -12 -94 -32 -109 -26 -8 3 -11 -21 -11 -81 0 -47 3 -85 8 -85 4 0 7 9 7 20 0 11 5 20 10 20 6 0 10 22 10 49 0 28 5 53 11 57 13 8 5 -84 -16 -173 -7 -30 -9 -51 -4 -46 5 5 17 45 25 89 9 43 21 84 26 89 9 9 7 -17 -8 -80 -5 -18 -4 -18 6 -3 6 10 14 41 17 68 3 28 10 53 15 56 11 7 -1 -68 -19 -120 -16 -46 -17 -68 -2 -43 15 26 50 177 47 200 -2 12 -7 15 -13 9z"/>
 <path d="M5100 4675 c0 -9 5 -15 11 -13 6 2 11 8 11 13 0 5 -5 11 -11 13 -6 2 -11 -4 -11 -13z"/>
 <path d="M5130 4600 c0 -5 -7 -10 -15 -10 -8 0 -15 -6 -15 -13 0 -7 -11 -29 -25 -49 -16 -24 -21 -39 -14 -43 6 -4 8 -13 5 -21 -3 -8 -2 -14 3 -14 13 0 33 28 27 38 -8 13 22 52 40 52 21 0 39 51 22 62 -18 11 -28 10 -28 -2z"/>
 <path d="M5655 4590 c-4 -6 -10 -8 -15 -5 -12 8 -106 -21 -150 -45 -41 -22 -29 -27 13 -5 48 25 120 42 158 38 24 -3 39 0 48 11 12 14 10 16 -17 16 -17 0 -34 -5 -37 -10z"/>
 <path d="M5735 4580 c-16 -7 -17 -9 -3 -9 9 -1 22 -3 30 -6 7 -3 22 1 33 9 19 15 19 15 -10 15 -16 0 -39 -4 -50 -9z"/>
 <path d="M5806 4561 c-3 -5 7 -11 24 -13 16 -2 27 -1 24 3 -2 4 2 10 8 12 7 3 -1 6 -19 6 -17 1 -34 -3 -37 -8z"/>
 <path d="M5565 4539 c-16 -5 -64 -26 -106 -46 l-76 -36 -36 -76 c-56 -121 -76 -179 -131 -391 -16 -58 -32 -112 -36 -121 -16 -31 -33 -175 -33 -274 l0 -100 46 -63 c25 -35 56 -84 69 -110 13 -26 26 -48 31 -50 4 -2 7 -12 7 -22 0 -11 10 -28 22 -40 17 -16 29 -19 57 -13 20 3 47 6 61 6 22 1 33 17 94 141 63 130 68 143 64 192 -3 40 -10 58 -28 72 -64 52 -68 259 -9 397 5 11 17 43 28 70 30 77 64 147 89 182 12 17 22 35 22 40 0 17 125 142 159 161 19 10 36 23 38 28 11 34 -263 77 -332 53z"/>
 <path d="M3582 4502 c-10 -21 -9 -29 4 -43 10 -11 12 -19 5 -24 -19 -11 -12 -24 17 -31 15 -4 32 -14 38 -22 8 -11 15 -12 32 -3 11 6 28 8 38 4 14 -5 16 -3 11 11 -4 10 -7 19 -7 22 0 2 -7 1 -15 -2 -8 -4 -26 -3 -40 0 -18 5 -26 15 -31 43 -4 20 -14 45 -23 54 -15 17 -17 16 -29 -9z"/>
 <path d="M3116 4512 c-3 -6 -1 -14 5 -17 15 -10 25 3 12 16 -7 7 -13 7 -17 1z"/>
 <path d="M3690 4510 c0 -8 5 -22 10 -30 9 -13 10 -13 10 0 0 8 -5 22 -10 30 -9 13 -10 13 -10 0z"/>
 <path d="M3273 4480 c-3 -13 -14 -20 -29 -20 -28 0 -30 -7 -8 -31 15 -17 17 -16 35 2 27 27 83 25 103 -3 9 -12 16 -30 16 -40 0 -10 7 -18 16 -18 8 0 12 5 8 11 -3 6 -1 15 6 19 18 11 5 40 -19 40 -12 0 -18 6 -17 18 1 14 -6 17 -36 15 -24 -1 -38 3 -42 12 -8 21 -27 18 -33 -5z"/>
 <path d="M3650 4462 c0 -12 7 -25 15 -29 25 -9 27 2 6 28 l-20 24 -1 -23z"/>
 <path d="M4892 4455 c-14 -31 -16 -53 -3 -39 9 9 24 64 18 64 -2 0 -9 -11 -15 -25z"/>
 <path d="M5027 4457 c-9 -13 -32 -41 -51 -62 -36 -38 -41 -55 -19 -62 17 -6 93 95 93 123 0 30 -4 30 -23 1z"/>
 <path d="M3295 4419 c-8 -13 23 -38 48 -39 22 0 23 36 1 44 -23 9 -42 7 -49 -5z"/>
 <path d="M6196 4401 c-3 -5 -14 -7 -24 -4 -32 8 -179 -88 -166 -108 3 -5 -1 -9 -8 -9 -28 0 -123 -122 -114 -146 3 -8 -1 -14 -9 -14 -19 0 -78 -126 -71 -153 3 -12 -1 -25 -9 -31 -8 -6 -17 -24 -19 -41 -3 -16 -10 -45 -15 -63 -7 -24 -7 -39 2 -53 10 -16 9 -21 -3 -29 -14 -8 -18 -97 -10 -225 2 -21 -69 -160 -77 -152 -2 3 14 39 36 81 22 42 37 76 32 76 -4 0 -14 -12 -21 -27 -8 -16 -45 -85 -82 -155 -37 -70 -68 -133 -68 -140 1 -7 12 9 26 35 15 29 29 45 36 41 6 -4 8 -3 5 4 -9 13 2 44 13 37 10 -6 24 16 84 127 47 89 53 104 36 93 -21 -13 -7 22 65 160 74 141 76 146 72 205 -4 59 -3 64 44 136 49 75 90 119 120 129 9 3 22 18 30 33 7 15 15 30 17 34 2 3 -6 9 -18 13 -16 5 -19 12 -14 28 11 38 19 38 95 6 93 -39 105 -49 89 -78 -6 -12 -17 -20 -23 -18 -20 6 -57 -58 -57 -99 0 -72 -108 -244 -153 -244 -8 0 -27 -24 -42 -52 -43 -80 -64 -117 -105 -188 -20 -36 -39 -69 -41 -75 -12 -30 -72 -125 -77 -121 -3 3 14 38 37 77 23 40 39 74 37 76 -2 3 -21 -26 -41 -64 -21 -37 -48 -85 -61 -105 -28 -43 -30 -56 -9 -38 8 7 15 8 15 2 0 -15 -26 -33 -35 -24 -5 4 -5 1 -1 -5 4 -7 2 -22 -4 -33 -6 -11 -9 -20 -7 -20 5 0 32 40 102 150 45 71 108 139 130 140 10 0 176 168 208 211 18 23 101 189 137 274 22 51 60 196 60 228 0 26 -37 108 -54 119 -16 11 -84 10 -90 -1z m110 -99 c-11 -10 -14 3 -8 33 l7 30 3 -28 c2 -16 1 -31 -2 -35z"/>
 <path d="M4516 4374 c-4 -14 -5 -29 -2 -31 3 -3 8 7 12 21 3 15 4 29 1 32 -2 3 -8 -7 -11 -22z"/>
 <path d="M5300 4370 c-6 -12 -9 -24 -7 -27 3 -2 11 5 17 17 6 12 9 24 7 27 -3 2 -11 -5 -17 -17z"/>
 <path d="M5910 4346 c0 -5 54 -36 63 -36 11 0 15 30 5 36 -7 5 -8 2 -3 -6 8 -13 -7 -12 -47 5 -10 4 -18 5 -18 1z"/>
 <path d="M4901 4321 c-6 -10 -7 -21 -4 -25 9 -8 33 14 33 30 0 20 -18 17 -29 -5z"/>
 <path d="M5770 4323 c0 -7 18 -22 40 -33 22 -11 40 -18 40 -15 0 2 -15 12 -32 21 -18 9 -36 22 -40 28 -6 8 -8 7 -8 -1z"/>
 <path d="M5864 4306 c26 -21 66 -40 66 -31 0 2 -21 15 -47 29 l-48 26 29 -24z"/>
 <path d="M3540 4296 c0 -7 14 -25 30 -39 31 -28 38 -51 20 -62 -5 -3 -10 -19 -10 -36 0 -16 5 -29 10 -29 6 0 10 9 10 20 0 11 5 20 11 20 6 0 8 9 4 20 -4 12 -1 27 5 35 9 11 7 20 -10 42 -24 31 -70 50 -70 29z"/>
 <path d="M5262 4291 c-6 -4 -19 -29 -27 -57 -18 -58 -18 -67 -5 -59 6 3 10 13 10 21 0 8 9 34 20 56 21 44 22 51 2 39z"/>
 <path d="M5764 4291 c8 -12 66 -44 71 -39 2 2 -15 14 -37 27 -22 12 -37 18 -34 12z"/>
 <path d="M4855 4270 c-10 -11 -15 -20 -11 -20 14 0 46 21 46 30 0 16 -16 11 -35 -10z"/>
 <path d="M5715 4261 l-15 -30 73 -40 72 -40 17 22 c11 14 14 25 7 32 -6 6 -13 5 -19 -5 -8 -13 -13 -13 -41 3 -17 9 -35 15 -40 11 -5 -3 -19 2 -31 10 -12 9 -17 16 -11 16 7 0 10 7 7 15 -4 8 -1 15 5 15 6 0 11 -4 11 -10 0 -16 73 -48 107 -46 18 1 41 11 52 23 l20 21 -31 11 c-39 14 -38 14 -32 -4 4 -11 13 -13 27 -9 20 6 20 6 4 -10 -11 -11 -24 -15 -38 -11 -15 5 -19 4 -15 -4 9 -15 4 -14 -44 5 -23 9 -38 19 -36 22 7 6 -13 32 -25 32 -5 0 -15 -13 -24 -29z"/>
 <path d="M6110 4280 c0 -6 5 -8 10 -5 6 4 18 1 27 -7 14 -11 16 -11 11 2 -5 18 -48 27 -48 10z"/>
 <path d="M4812 4217 c-12 -13 -22 -27 -22 -31 0 -4 11 5 25 20 14 15 25 29 25 30 0 8 -7 3 -28 -19z"/>
 <path d="M3760 4213 c0 -9 -6 -13 -14 -10 -8 3 -20 -1 -26 -9 -7 -8 -9 -14 -6 -14 4 0 2 -9 -4 -21 -8 -15 -8 -24 0 -34 7 -8 9 -19 5 -25 -3 -5 2 -13 12 -17 10 -3 22 -12 26 -20 11 -18 27 -16 27 4 0 13 3 14 12 5 17 -17 38 -15 38 3 0 8 7 15 16 15 11 0 14 5 10 16 -3 9 -6 20 -6 25 0 5 -13 0 -29 -12 -32 -24 -59 -22 -75 4 -18 28 5 52 47 51 35 -1 35 -1 21 21 -18 28 -54 40 -54 18z"/>
 <path d="M6122 4205 c-6 -14 -8 -25 -3 -25 4 0 13 11 19 25 6 14 8 25 3 25 -4 0 -13 -11 -19 -25z"/>
 <path d="M6152 4204 c-7 -14 -8 -23 -2 -19 15 9 32 45 22 45 -5 0 -14 -12 -20 -26z"/>
 <path d="M6192 4186 c-17 -37 -15 -45 4 -18 8 12 14 27 12 33 -2 6 -9 -1 -16 -15z"/>
 <path d="M5680 4191 c0 -4 27 -22 59 -40 44 -23 59 -37 58 -51 -1 -14 -6 -18 -19 -14 -10 3 -18 1 -18 -5 0 -6 -8 -11 -17 -11 -15 0 -16 2 -3 10 12 8 12 10 1 10 -11 0 -11 3 0 18 13 15 12 16 -3 4 -14 -12 -21 -11 -38 1 -14 10 -18 17 -10 22 8 5 8 11 -1 21 -13 15 -34 20 -24 5 3 -5 1 -13 -5 -16 -8 -5 -7 -11 1 -21 9 -11 8 -14 -5 -14 -9 0 -16 -5 -16 -11 0 -6 7 -8 16 -5 8 3 12 2 9 -4 -3 -5 10 -16 30 -26 30 -14 34 -19 23 -32 -12 -13 -11 -14 9 -2 12 8 19 18 17 22 -3 4 7 3 21 -2 35 -13 35 -13 35 8 0 11 9 27 20 37 26 23 25 34 -3 44 -12 5 -47 21 -77 35 -61 29 -60 29 -60 17z m47 -116 c0 -19 -7 -18 -31 0 -19 14 -19 15 5 15 16 0 26 -6 26 -15z"/>
 <path d="M4756 4150 c-8 -19 -12 -40 -9 -47 3 -7 2 -33 -1 -58 -5 -31 -13 -46 -26 -50 -11 -3 -19 -9 -17 -13 1 -4 -20 -29 -46 -56 -55 -58 -59 -83 -17 -124 18 -19 30 -41 30 -57 0 -19 5 -25 16 -23 30 5 26 -20 -5 -37 -34 -17 -35 -18 -22 -43 5 -9 12 -25 15 -34 9 -29 26 -20 26 13 0 44 56 99 100 99 26 0 30 3 25 19 -8 25 9 35 36 20 12 -6 19 -7 15 -1 -3 6 1 23 11 39 16 28 15 32 -6 74 -19 40 -81 121 -81 108 0 -16 25 -76 37 -87 14 -14 18 -52 5 -52 -4 0 -16 -16 -26 -35 -16 -28 -25 -35 -50 -35 -39 0 -53 10 -72 45 -30 59 -9 112 49 122 36 5 39 8 33 34 -15 75 -18 157 -6 178 6 13 9 25 6 28 -3 3 -12 -9 -20 -27z"/>
 <path d="M3767 4163 c-17 -16 -6 -43 16 -43 31 0 38 9 26 31 -10 19 -30 25 -42 12z"/>
 <path d="M4416 4162 c-14 -13 -9 -17 82 -62 12 -6 22 -7 22 -2 0 12 -97 72 -104 64z"/>
 <path d="M4495 4160 c-3 -6 1 -13 10 -16 19 -8 30 0 20 15 -8 14 -22 14 -30 1z"/>
 <path d="M5207 4153 c-10 -9 -8 -33 2 -33 5 0 11 9 14 20 5 20 -3 26 -16 13z"/>
 <path d="M3577 4113 c-4 -3 -7 -13 -7 -22 0 -9 -7 -29 -15 -45 -9 -16 -13 -31 -10 -34 6 -6 35 18 35 30 0 5 7 16 15 24 19 19 20 54 2 54 -8 0 -17 -3 -20 -7z"/>
 <path d="M5187 4093 c-11 -20 -16 -63 -8 -63 7 0 31 51 31 66 0 7 -19 4 -23 -3z"/>
 <path d="M4183 4061 c1 -12 6 -20 12 -18 14 5 13 29 -2 34 -7 3 -11 -4 -10 -16z"/>
 <path d="M5633 4068 c2 -7 10 -12 17 -10 7 2 21 -5 31 -14 11 -9 19 -12 19 -7 0 12 -44 43 -60 43 -7 0 -10 -6 -7 -12z"/>
 <path d="M6152 4063 c-5 -10 -14 -34 -21 -53 -6 -20 -29 -57 -51 -84 -44 -54 -47 -58 -25 -50 21 8 73 87 96 147 19 49 20 77 1 40z"/>
 <path d="M4338 4059 c-10 -5 -18 -15 -18 -21 0 -6 7 -5 17 3 15 13 15 12 4 -8 -6 -13 -8 -23 -3 -23 8 0 32 42 32 55 0 8 -14 5 -32 -6z"/>
 <path d="M4411 4043 c-6 -10 -11 -12 -11 -5 0 21 -20 13 -32 -13 -6 -14 -17 -25 -25 -25 -7 0 -21 -16 -30 -35 -9 -19 -20 -35 -25 -35 -11 0 -10 38 2 45 16 10 12 23 -7 21 -10 0 -26 -13 -35 -28 -21 -33 -42 -38 -33 -8 10 33 -3 23 -24 -17 -10 -21 -19 -51 -19 -66 l1 -28 21 32 c18 26 30 33 62 35 21 1 55 7 74 13 19 6 36 11 38 11 4 0 -39 -61 -62 -87 -37 -44 -43 -14 -7 33 9 11 1 5 -17 -13 -18 -18 -37 -33 -42 -33 -6 0 -10 -5 -10 -11 0 -6 -8 -8 -19 -4 -11 3 -21 0 -24 -9 -3 -8 -19 -17 -36 -21 -17 -4 -31 -13 -31 -21 0 -8 -7 -14 -15 -14 -8 0 -15 9 -15 21 0 11 -4 18 -9 15 -4 -3 -6 -17 -3 -31 3 -17 0 -25 -9 -25 -11 0 -11 -2 1 -10 12 -8 13 -13 3 -30 -7 -11 -13 -30 -13 -42 0 -21 0 -21 -16 -2 -15 18 -15 17 -10 -15 5 -26 3 -32 -8 -28 -11 4 -16 -3 -18 -26 l-3 -32 -22 45 -22 45 6 -50 c12 -102 11 -145 -3 -134 -9 8 -11 5 -7 -13 4 -18 3 -20 -6 -8 -6 8 -11 11 -11 7 0 -12 20 -49 38 -69 14 -16 16 -16 32 5 9 12 28 53 40 90 25 73 88 155 141 182 49 26 145 13 201 -26 14 -11 33 -19 42 -19 19 0 21 -16 4 -23 -9 -4 -10 -6 -1 -6 6 -1 19 6 28 15 23 23 9 34 -88 74 -93 39 -167 39 -218 1 -30 -23 -48 -23 -34 -1 13 22 96 50 146 50 30 0 65 -8 88 -20 22 -11 58 -26 80 -34 42 -14 42 -14 65 18 13 17 26 36 30 43 9 16 -4 43 -21 43 -9 0 -13 6 -9 15 3 9 -3 24 -14 35 -17 17 -20 17 -20 4 0 -9 -11 -25 -25 -36 -43 -34 -32 -56 20 -37 6 2 11 0 13 -6 1 -5 -13 -14 -30 -18 -18 -5 -38 -13 -44 -18 -6 -5 -14 -6 -18 -2 -4 4 -35 16 -69 27 -42 14 -63 27 -65 39 -4 17 -2 17 27 3 16 -9 38 -16 48 -16 31 0 83 38 83 60 0 12 4 19 9 16 5 -3 13 7 19 22 6 15 13 36 18 47 4 11 8 43 10 70 l3 50 -18 -56 c-10 -31 -26 -67 -36 -80 l-17 -24 6 32 c3 18 15 53 26 78 18 40 19 48 6 66 -13 20 -15 20 -25 2z m-50 -187 c-9 -11 -10 -16 -3 -12 7 4 20 5 29 2 12 -5 13 -9 3 -21 -7 -8 -9 -15 -4 -15 12 -1 -27 -30 -39 -30 -5 0 -7 7 -4 15 4 8 2 17 -3 20 -15 9 -12 43 7 72 15 23 17 24 24 7 4 -12 0 -26 -10 -38z"/>
 <path d="M5763 4020 c-1 -16 1 -17 12 -7 7 6 11 15 8 20 -8 13 -19 7 -20 -13z"/>
 <path d="M3436 4013 c-13 -49 -17 -103 -7 -103 6 0 11 16 11 36 0 19 5 44 10 54 6 11 6 21 1 25 -5 3 -12 -3 -15 -12z"/>
 <path d="M5619 4021 c17 -11 24 -41 10 -41 -5 0 -9 7 -9 16 0 9 -5 14 -12 12 -15 -5 -19 -36 -6 -45 7 -3 8 -1 4 5 -10 17 7 15 30 -4 17 -14 17 -15 1 -10 -11 4 -16 2 -12 -5 4 -6 -2 -8 -18 -4 -21 6 -24 3 -24 -19 0 -13 6 -27 14 -30 9 -4 11 -2 6 7 -19 31 -11 45 17 27 13 -9 13 -10 0 -10 -8 0 2 -10 23 -23 21 -13 35 -26 32 -29 -3 -3 1 -8 10 -12 9 -3 13 -2 10 4 -8 13 8 13 22 -1 15 -15 39 51 34 98 0 7 -30 26 -66 43 -62 29 -95 40 -66 21z m51 -31 c13 -9 13 -10 0 -10 -8 -1 1 -9 20 -20 19 -11 31 -19 25 -19 -17 0 -81 38 -65 39 13 0 13 1 0 10 -8 5 -10 10 -5 10 6 0 17 -5 25 -10z m19 -54 c20 -11 21 -14 6 -20 -9 -3 -22 -3 -27 1 -7 3 -8 1 -4 -6 4 -7 17 -9 29 -6 17 5 19 4 7 -4 -12 -9 -13 -11 -1 -11 8 0 12 -2 9 -5 -3 -3 -22 2 -42 12 -37 17 -37 17 -14 30 l23 14 -25 -6 c-19 -5 -22 -4 -10 4 19 13 20 13 49 -3z"/>
 <path d="M3623 3997 c-28 -12 -32 -41 -4 -32 23 7 44 -17 39 -47 -2 -18 -9 -23 -33 -23 -24 0 -31 5 -35 25 -4 21 -30 42 -30 25 0 -24 32 -75 47 -75 10 0 28 -3 41 -6 16 -5 22 -2 22 9 0 9 9 18 20 22 16 5 18 12 13 38 -3 18 -10 34 -15 36 -5 1 -17 11 -26 21 -13 14 -22 15 -39 7z"/>
 <path d="M3965 3987 c10 -15 20 -25 23 -22 3 3 -5 16 -17 28 l-23 22 17 -28z"/>
 <path d="M5155 3968 c-3 -13 -16 -71 -30 -130 -24 -102 -31 -158 -20 -146 3 2 9 25 14 49 5 24 19 82 30 129 12 47 23 93 25 103 2 9 0 17 -5 17 -5 0 -11 -10 -14 -22z"/>
 <path d="M4490 3942 c0 -21 3 -42 8 -46 4 -4 7 -13 7 -18 0 -6 6 -13 13 -15 20 -7 16 103 -4 111 -24 9 -24 9 -24 -32z"/>
 <path d="M4628 3941 c-9 -11 -22 -30 -28 -43 -8 -15 -2 -11 18 12 27 30 38 50 29 50 -1 0 -10 -9 -19 -19z"/>
 <path d="M3610 3931 c0 -15 6 -21 21 -21 14 0 19 5 17 17 -5 26 -38 29 -38 4z"/>
 <path d="M3997 3929 c-5 -19 -11 -21 -44 -16 -21 3 -46 8 -55 12 -16 6 -18 1 -18 -39 0 -26 -6 -61 -14 -79 -26 -59 -88 -112 -100 -84 -2 7 -5 2 -5 -11 -1 -26 25 -82 39 -82 12 0 42 31 36 38 -3 2 -12 -1 -21 -8 -9 -7 -19 -10 -22 -6 -4 4 15 26 42 48 79 66 130 123 158 179 15 28 27 55 27 60 0 18 -18 9 -23 -12z"/>
 <path d="M4137 3924 c-15 -14 -29 -35 -32 -45 -8 -25 -29 -24 -22 1 3 11 2 20 -3 20 -8 0 -20 -35 -20 -61 0 -12 7 -15 25 -11 14 2 25 8 25 12 0 5 8 11 18 14 15 5 47 84 38 94 -2 1 -15 -9 -29 -24z"/>
 <path d="M4546 3924 c-9 -35 -2 -40 12 -9 6 13 7 27 3 30 -5 2 -12 -7 -15 -21z"/>
 <path d="M4766 3921 c-3 -5 -14 -7 -25 -4 -14 3 -23 -4 -35 -28 -16 -31 -16 -36 0 -65 19 -36 66 -50 85 -27 9 10 6 13 -14 13 -34 0 -53 33 -38 66 10 24 29 24 58 2 8 -7 10 -3 6 11 -7 26 -29 45 -37 32z"/>
 <path d="M3445 3894 c-16 -13 -58 -40 -92 -60 -34 -19 -66 -41 -70 -48 -5 -8 -25 -13 -53 -12 -41 1 -46 -2 -60 -30 -9 -18 -33 -41 -57 -54 -37 -19 -131 -115 -158 -160 -60 -101 -62 -123 -16 -164 17 -15 21 -31 21 -75 0 -40 3 -52 10 -41 5 8 10 26 10 38 0 16 7 26 21 29 15 4 20 12 16 29 -3 20 4 26 62 51 51 21 84 46 142 105 43 42 80 87 84 100 13 46 28 78 36 78 5 0 6 -7 3 -15 -8 -21 1 -19 89 17 l77 32 0 38 c0 21 -2 38 -5 38 -3 0 -28 -12 -56 -26 -28 -14 -56 -23 -62 -21 -7 2 16 18 51 36 54 27 62 35 62 59 -1 15 -6 39 -13 54 l-12 27 -30 -25z"/>
 <path d="M3826 3911 c-4 -5 -2 -12 4 -16 5 -3 10 -15 10 -26 0 -10 5 -19 11 -19 14 0 7 62 -8 67 -6 2 -14 0 -17 -6z"/>
 <path d="M4550 3866 c-12 -33 -12 -36 -1 -36 9 0 22 52 15 59 -2 2 -8 -8 -14 -23z"/>
 <path d="M4750 3862 c0 -26 11 -34 27 -21 10 9 10 15 2 25 -16 19 -29 17 -29 -4z"/>
 <path d="M5605 3865 c93 -44 125 -55 125 -39 0 8 -4 13 -9 9 -5 -3 -35 6 -67 20 -60 26 -100 35 -49 10z"/>
 <path d="M3525 3830 c5 -25 8 -51 8 -57 0 -7 4 -13 8 -13 11 0 -1 92 -13 105 -7 6 -7 -6 -3 -35z"/>
 <path d="M4030 3798 c0 -39 1 -41 16 -26 11 11 14 25 10 42 -10 40 -26 31 -26 -16z"/>
 <path d="M5570 3830 c8 -5 10 -10 5 -10 -12 0 -14 -39 -2 -56 4 -7 24 -21 44 -31 30 -15 44 -17 66 -9 42 15 33 66 -12 66 -4 0 -8 -7 -8 -15 0 -8 4 -15 9 -15 5 0 4 -9 -2 -20 -11 -21 -35 -18 -44 7 -4 10 -2 13 8 10 11 -4 13 0 11 15 -7 32 -22 43 -38 29 -12 -9 -16 -8 -21 4 -3 8 0 15 7 15 8 0 6 4 -3 10 -8 5 -19 10 -25 10 -5 0 -3 -5 5 -10z m55 -40 c-3 -5 0 -10 7 -10 7 0 2 -7 -10 -16 -18 -12 -26 -13 -37 -4 -22 18 -18 32 5 25 11 -4 20 -2 20 4 0 6 5 11 11 11 5 0 7 -4 4 -10z"/>
 <path d="M5854 3708 c-75 -145 -83 -163 -60 -134 9 11 16 14 16 7 0 -7 5 -9 10 -6 6 3 10 11 10 16 0 6 -4 7 -10 4 -5 -3 -10 -3 -10 2 0 12 40 69 40 58 1 -13 30 25 30 39 0 5 -7 1 -15 -10 -27 -35 -15 -4 26 72 23 41 39 77 37 80 -3 2 -36 -55 -74 -128z"/>
 <path d="M5972 3808 c-17 -34 -81 -148 -104 -186 -11 -18 -18 -35 -15 -38 3 -3 28 37 57 88 29 51 61 108 72 126 11 17 15 32 10 32 -5 0 -14 -10 -20 -22z"/>
 <path d="M3660 3810 c-8 -5 -23 -11 -32 -14 -13 -4 -16 -15 -15 -42 4 -48 20 -54 32 -12 8 26 16 34 39 36 16 2 33 -1 39 -7 13 -13 47 -15 47 -3 0 15 -38 44 -49 38 -5 -4 -12 -2 -16 4 -7 12 -24 12 -45 0z"/>
 <path d="M4553 3780 c1 -22 5 -40 9 -40 11 0 10 68 -1 75 -6 3 -9 -12 -8 -35z"/>
 <path d="M4606 3784 c-3 -8 -3 -28 0 -44 5 -25 2 -31 -20 -41 -24 -11 -36 -29 -18 -29 23 1 52 14 52 25 0 7 9 15 20 18 21 5 28 27 9 27 -6 0 -8 8 -5 18 8 23 -29 49 -38 26z"/>
 <path d="M3998 3729 c-2 -30 0 -65 4 -79 7 -22 7 -21 5 8 -2 17 0 32 5 32 11 0 10 61 -1 79 -6 9 -10 -4 -13 -40z"/>
 <path d="M3660 3746 c0 -9 7 -12 20 -9 31 8 34 23 6 23 -16 0 -26 -6 -26 -14z"/>
 <path d="M4894 3732 c-27 -18 -23 -43 14 -80 20 -20 46 -47 56 -60 17 -20 17 -22 2 -22 -9 0 -20 8 -24 19 -11 30 -72 76 -87 65 -6 -5 -28 -20 -48 -34 -20 -14 -36 -28 -34 -31 3 -10 133 -106 180 -133 35 -21 46 -35 62 -78 10 -29 30 -71 43 -93 22 -35 107 -124 156 -163 20 -16 21 -36 1 -28 -9 3 -15 0 -15 -10 0 -9 9 -18 20 -21 17 -5 20 -14 20 -69 0 -63 0 -64 40 -89 22 -14 42 -25 46 -25 3 0 19 -10 36 -21 29 -21 32 -21 64 -6 22 11 34 24 34 36 0 11 5 23 10 26 19 12 10 25 -16 25 -21 0 -25 4 -21 20 3 11 1 22 -4 26 -10 5 -59 -43 -59 -58 0 -5 -5 -6 -11 -2 -6 3 -8 15 -6 26 8 28 -9 68 -28 68 -9 0 -13 5 -10 10 3 6 13 10 21 10 8 0 24 10 37 22 23 23 29 32 60 87 l18 31 -40 0 c-22 0 -41 -4 -43 -10 -1 -5 -18 -13 -37 -16 -23 -5 -32 -4 -28 3 9 14 -77 196 -112 237 -44 52 -67 90 -74 117 -4 17 -13 26 -23 25 -10 0 -29 19 -48 50 -17 28 -55 74 -85 102 -30 29 -55 52 -55 52 -1 0 -6 -4 -12 -8z m171 -292 c-3 -5 -16 -10 -28 -9 -21 0 -21 1 -2 9 28 12 37 12 30 0z"/>
 <path d="M5690 3700 c12 -23 7 -25 -21 -10 -10 6 -19 8 -19 6 0 -5 55 -36 64 -36 2 0 3 8 1 18 -2 9 -4 23 -4 30 -1 6 -8 12 -16 12 -13 0 -14 -4 -5 -20z"/>
 <path d="M4763 3692 c-2 -11 -14 -23 -25 -25 -13 -4 -18 -11 -15 -20 3 -8 1 -20 -3 -27 -13 -21 -1 -31 21 -20 10 6 19 19 19 28 0 25 20 42 47 42 14 0 23 6 23 15 0 8 -6 15 -14 15 -8 0 -22 3 -31 6 -11 5 -18 0 -22 -14z"/>
 <path d="M5098 3667 c-12 -30 -10 -103 3 -90 5 5 9 32 7 59 -2 34 -5 43 -10 31z"/>
 <path d="M3826 3583 c-55 -57 -76 -85 -76 -104 0 -15 -9 -37 -20 -50 -22 -27 -24 -19 -11 29 11 36 3 41 -20 14 -24 -28 -31 -42 -39 -78 -9 -39 -5 -42 18 -14 15 19 29 21 131 22 l113 0 -6 42 c-15 89 -18 186 -7 186 6 0 11 7 11 15 0 28 -18 15 -94 -62z"/>
 <path d="M5660 3641 c24 -20 24 -20 2 -14 -12 3 -25 9 -28 14 -3 5 -13 9 -22 9 -9 0 10 -16 43 -35 62 -36 67 -42 18 -25 -26 9 -27 9 -9 -5 23 -17 42 -19 51 -5 10 16 -14 49 -48 65 l-32 16 25 -20z"/>
 <path d="M2433 3627 c-23 -7 -48 -18 -55 -26 -11 -12 -9 -13 12 -7 63 18 246 19 331 2 46 -10 88 -22 94 -27 12 -12 17 -12 -102 10 -76 15 -124 18 -192 14 -49 -3 -94 -9 -99 -12 -6 -4 -6 -31 0 -71 7 -56 15 -149 17 -212 1 -10 6 -18 12 -18 6 0 8 8 4 19 -8 26 29 107 57 122 33 17 89 13 111 -10 31 -30 46 -107 35 -175 -24 -156 -92 -213 -165 -140 -14 13 -39 84 -45 124 l-3 25 -13 -22 c-11 -20 -10 -27 9 -52 17 -23 20 -38 16 -65 -3 -20 -2 -36 3 -36 11 0 -14 -88 -29 -103 -16 -16 -14 14 4 56 19 45 19 53 1 38 -7 -6 -16 -24 -19 -39 -3 -15 -9 -35 -12 -45 -6 -13 1 -21 29 -32 58 -24 84 -20 107 20 24 40 46 49 84 35 20 -7 31 -8 39 0 13 13 52 13 75 0 16 -8 19 -5 19 34 l1 43 -51 -5 -51 -5 7 64 c8 67 32 130 54 137 7 2 12 -7 13 -25 1 -20 3 -23 6 -8 3 10 11 28 18 40 7 11 13 40 14 64 1 25 4 48 7 53 3 4 -2 11 -10 14 -22 8 -21 70 0 78 9 3 20 4 25 0 5 -3 12 3 16 12 8 22 40 54 53 54 16 0 12 15 -10 35 -51 46 -307 72 -417 42z m25 -79 c9 -9 12 -9 12 0 0 7 7 12 15 12 8 0 15 -5 15 -11 0 -8 4 -8 13 -1 14 12 97 4 97 -9 0 -5 -18 -6 -40 -3 -34 6 -40 4 -40 -11 0 -12 -6 -16 -20 -12 -13 3 -20 0 -20 -9 0 -17 -12 -18 -28 -2 -9 9 -9 4 -2 -23 13 -45 13 -72 -2 -67 -6 2 -12 17 -13 34 -1 16 -5 48 -10 72 -8 43 0 53 23 30z"/>
 <path d="M4185 3628 c-22 -11 -61 -56 -71 -82 -10 -26 41 -40 71 -20 14 9 25 21 25 28 0 15 49 74 50 59 0 -7 -5 -24 -12 -38 -9 -19 -9 -28 0 -37 9 -9 23 -1 59 36 36 38 43 50 32 57 -19 12 -129 10 -154 -3z"/>
 <path d="M4387 3563 c-10 -18 -17 -48 -17 -68 0 -19 -6 -45 -12 -56 -10 -17 -10 -23 0 -26 7 -3 12 -22 12 -44 0 -42 17 -52 40 -24 7 8 24 15 39 15 46 0 53 11 38 55 -18 52 -33 55 -29 5 5 -46 -13 -55 -28 -14 -13 33 -13 47 1 38 8 -4 8 -1 1 13 -13 24 -5 63 15 80 18 14 9 33 -17 33 -10 0 -20 6 -23 13 -2 6 -11 -2 -20 -20z"/>
 <path d="M3644 3553 c-3 -10 -10 -28 -15 -41 -5 -13 -7 -28 -3 -33 3 -5 -2 -12 -12 -16 -11 -4 -22 2 -33 16 -17 22 -17 22 -18 -12 -1 -19 -9 -47 -18 -61 -14 -20 -15 -30 -6 -39 8 -8 11 -7 11 6 0 9 5 17 10 17 6 0 10 -7 10 -15 0 -8 4 -15 8 -15 5 0 7 15 4 33 -5 34 11 29 22 -8 3 -11 3 -3 0 17 -5 42 12 60 25 26 9 -22 10 -22 10 -2 1 12 10 33 22 48 18 23 19 28 5 47 -8 12 -12 28 -9 35 3 8 2 14 -1 14 -4 0 -9 -8 -12 -17z"/>
 <path d="M3707 3530 c-6 -23 3 -26 21 -8 16 16 15 28 -2 28 -7 0 -16 -9 -19 -20z"/>
 <path d="M5944 3538 c-66 -60 -104 -100 -104 -109 0 -6 -13 -27 -30 -46 -41 -46 -38 -65 3 -21 58 64 158 188 150 188 -4 -1 -13 -6 -19 -12z"/>
 <path d="M5646 3531 c-3 -4 4 -17 17 -27 l22 -19 -19 23 c-23 26 -11 29 18 5 21 -18 21 -18 2 5 -20 23 -32 27 -40 13z"/>
 <path d="M2362 3478 c-7 -7 -12 -22 -12 -35 0 -22 1 -23 24 -8 16 11 22 22 19 35 -6 23 -14 25 -31 8z"/>
 <path d="M2766 3454 c-4 -9 -5 -19 -3 -21 8 -8 37 10 37 23 0 19 -26 18 -34 -2z"/>
 <path d="M5620 3458 c0 -9 7 -19 16 -22 25 -10 27 -1 4 19 -17 15 -20 16 -20 3z"/>
 <path d="M5610 3420 c8 -5 22 -10 30 -10 13 0 13 1 0 10 -8 5 -22 10 -30 10 -13 0 -13 -1 0 -10z"/>
 <path d="M2367 3394 c-23 -31 -18 -58 10 -62 25 -4 40 31 28 67 -8 27 -16 26 -38 -5z"/>
 <path d="M2529 3404 c-15 -7 -29 -22 -32 -34 -4 -17 0 -20 24 -20 26 0 28 -2 20 -19 -11 -20 -5 -31 16 -31 9 0 11 8 7 25 -5 22 -3 25 20 25 30 0 34 20 9 42 -30 25 -37 27 -64 12z"/>
 <path d="M4050 3391 c-8 -18 -8 -27 3 -40 8 -9 20 -26 26 -38 19 -36 -10 -29 -31 7 -9 17 -22 30 -29 30 -8 0 -8 -4 1 -15 10 -12 10 -15 -1 -15 -8 0 -23 11 -33 25 -10 14 -23 25 -29 25 -6 0 -2 -9 8 -20 31 -34 7 -36 -28 -2 -18 18 -37 32 -42 32 -6 0 -2 -5 8 -11 9 -5 17 -14 17 -19 0 -19 -30 -10 -55 18 -16 17 -23 20 -19 9 5 -15 3 -16 -21 -7 -34 13 -92 13 -100 0 -4 -6 9 -10 33 -10 44 0 112 -25 112 -40 0 -6 9 -10 20 -10 11 0 20 -6 20 -14 0 -8 4 -18 10 -21 6 -3 7 1 4 9 -9 24 6 19 28 -9 11 -14 25 -25 33 -25 7 0 18 -7 25 -15 10 -11 15 -13 20 -4 5 7 15 3 31 -14 33 -34 90 -43 113 -18 31 34 72 36 118 6 36 -24 41 -25 57 -11 21 19 52 23 33 4 -7 -7 -12 -17 -12 -22 1 -6 11 2 24 18 16 19 26 24 31 16 5 -8 16 -3 38 17 20 19 28 22 24 11 -5 -15 -4 -16 13 -5 11 6 20 17 20 24 0 16 38 36 56 29 8 -3 14 1 14 8 0 21 55 39 95 32 44 -9 46 8 4 23 -45 15 -111 14 -135 -4 -24 -16 -36 -11 -26 13 4 12 -2 10 -26 -7 -18 -12 -32 -27 -32 -32 0 -5 -7 -9 -16 -9 -11 0 -14 5 -9 18 4 12 1 11 -15 -5 -11 -13 -32 -23 -45 -23 -14 0 -29 -8 -35 -20 -13 -25 -31 -27 -24 -2 4 12 0 10 -15 -7 -16 -18 -24 -21 -34 -12 -10 8 -17 7 -25 -1 -9 -9 -16 -7 -31 6 -11 10 -24 15 -29 12 -7 -4 -72 57 -72 69 0 1 11 5 25 8 18 3 30 -2 40 -15 7 -11 18 -17 23 -14 6 3 12 2 14 -4 3 -11 105 -17 115 -7 4 5 13 75 9 78 -1 0 -65 6 -143 12 l-142 12 -11 -24z m56 -47 c39 -49 47 -64 39 -72 -4 -4 -15 4 -23 18 -9 14 -29 37 -44 51 -24 23 -27 39 -8 39 3 0 20 -16 36 -36z"/>
 <path d="M5604 3395 c11 -8 25 -15 30 -15 6 0 2 7 -8 15 -11 8 -25 15 -30 15 -6 0 -2 -7 8 -15z"/>
 <path d="M3484 3375 c8 -22 -13 -29 -33 -11 -29 27 -39 20 -31 -23 l7 -39 -40 6 c-29 4 -38 2 -33 -6 4 -7 13 -12 20 -12 8 0 17 -16 20 -35 9 -45 26 -55 26 -16 0 31 14 42 23 19 3 -7 4 1 4 17 -2 21 2 29 12 27 8 -2 11 3 8 13 -4 8 -2 15 3 15 6 0 10 -4 10 -10 0 -18 22 -10 27 10 3 11 9 20 14 20 18 0 8 15 -17 27 -21 10 -25 10 -20 -2z"/>
 <path d="M2810 3358 c0 -7 -3 -23 -6 -36 -5 -18 -3 -21 10 -16 20 8 21 -9 1 -26 -8 -7 -15 -17 -15 -23 0 -5 8 -3 18 6 17 16 52 24 52 12 0 -3 -9 -14 -20 -25 -11 -11 -20 -32 -20 -46 0 -24 -3 -25 -27 -19 -33 8 -32 8 -61 6 -16 -1 -27 -11 -36 -33 -16 -38 -14 -64 5 -60 8 2 39 6 69 10 32 3 67 14 83 25 24 19 27 27 27 83 0 53 -4 67 -27 96 -47 56 -53 61 -53 46z"/>
 <path d="M2878 3325 c32 -36 33 -39 31 -118 -3 -92 -14 -111 -96 -168 -24 -17 -43 -36 -43 -44 0 -22 17 -18 23 4 2 11 27 34 54 52 71 47 81 64 83 145 4 123 4 121 -42 145 l-42 22 32 -38z"/>
 <path d="M2476 3318 c-10 -38 -7 -125 6 -155 17 -39 48 -73 69 -73 34 0 66 78 73 177 4 68 -1 82 -20 55 -19 -28 -30 -142 -13 -142 10 0 10 -3 1 -12 -22 -22 -40 8 -35 56 4 34 2 44 -12 50 -15 5 -17 0 -13 -44 3 -46 1 -50 -19 -50 -20 0 -21 3 -12 32 15 55 9 128 -11 128 -4 0 -10 -10 -14 -22z"/>
 <path d="M3526 3309 c-49 -36 -58 -49 -85 -122 -20 -56 -20 -59 -4 -82 21 -29 38 -33 23 -6 -17 32 -12 44 15 39 27 -6 27 -6 40 77 4 22 16 50 28 63 21 23 47 30 47 12 0 -5 5 -10 12 -10 6 0 4 7 -5 18 -10 10 -17 24 -17 30 0 18 -11 14 -54 -19z"/>
 <path d="M3663 3327 c-33 -17 -29 -34 7 -29 18 3 30 0 30 -7 0 -6 -6 -11 -14 -11 -8 0 -22 -7 -31 -17 -19 -19 -14 -63 15 -130 17 -39 17 -43 2 -52 -13 -7 -14 -12 -4 -24 10 -11 9 -17 -4 -28 -13 -11 -15 -24 -9 -69 10 -76 7 -161 -7 -177 -7 -9 -7 -17 0 -26 6 -7 9 -24 6 -38 -5 -23 -5 -23 7 -4 14 22 29 35 43 35 5 0 0 -10 -12 -23 -27 -29 -28 -53 -2 -67 11 -6 20 -16 20 -22 0 -7 10 -23 23 -36 21 -24 21 -24 -27 4 -27 15 -46 23 -42 16 9 -15 86 -55 93 -48 3 2 22 -4 43 -15 20 -11 57 -23 81 -28 l44 -8 -40 -11 c-22 -7 -47 -12 -55 -12 -8 -1 -26 -8 -40 -16 l-25 -15 25 5 c14 3 60 8 103 12 73 6 77 6 77 -14 0 -11 6 -22 13 -25 6 -2 8 -8 4 -13 -5 -5 -26 1 -48 14 -60 34 -47 18 18 -22 32 -20 54 -36 51 -36 -15 0 -64 25 -96 49 -24 17 -38 21 -52 15 -18 -8 -18 -10 -2 -29 24 -29 80 -67 90 -61 5 3 50 -8 100 -24 51 -17 102 -30 115 -29 12 0 -7 9 -42 19 -35 11 -66 22 -69 25 -9 9 18 5 71 -10 29 -8 99 -16 157 -17 95 -3 105 -1 115 17 6 13 22 21 45 23 38 4 104 44 126 77 12 19 11 29 -12 85 -14 35 -23 72 -21 82 7 26 -12 22 -22 -4 -5 -14 -4 -31 2 -43 7 -11 12 -27 13 -35 1 -8 5 -26 8 -40 9 -33 -16 -57 -107 -103 -41 -21 -63 -37 -55 -41 19 -9 -79 3 -127 16 -169 43 -202 57 -252 108 -32 32 -30 57 2 30 11 -9 15 -9 15 -1 0 14 37 15 45 0 4 -5 18 -15 32 -20 20 -7 28 -6 38 8 10 14 16 15 28 5 8 -7 22 -9 32 -6 10 4 21 1 27 -7 7 -11 11 -11 15 -1 2 6 9 10 14 6 5 -3 16 2 25 11 15 14 19 14 49 -10 43 -32 60 -33 20 0 -16 13 -25 24 -18 25 6 0 15 -4 18 -10 10 -16 28 -12 21 5 -3 8 -1 15 4 15 4 0 11 15 15 33 6 33 16 58 43 115 20 41 11 50 -26 23 -17 -12 -37 -21 -46 -21 -9 0 -16 -5 -16 -11 0 -5 -5 -7 -11 -3 -6 3 -14 2 -18 -3 -3 -5 -20 -13 -37 -16 -23 -4 -33 -1 -42 14 -19 31 10 54 65 52 23 -1 45 3 48 8 4 5 14 9 24 9 10 0 28 9 41 20 13 11 29 20 37 20 7 0 13 7 13 15 0 8 9 19 20 25 11 6 20 16 20 22 0 7 10 23 23 36 19 22 19 24 3 18 -10 -3 -79 -9 -152 -13 -74 -3 -134 -8 -134 -11 0 -3 10 -16 22 -29 25 -27 19 -40 -10 -22 -23 14 -45 53 -48 84 -1 10 -7 21 -13 23 -6 2 -11 9 -11 15 0 6 -7 19 -17 29 -26 29 -7 33 27 4 38 -31 88 -34 121 -7 19 15 25 32 30 87 7 85 -6 123 -54 152 -19 12 -38 22 -43 22 -5 0 -28 -18 -52 -40 -49 -46 -55 -47 -82 -20 -23 23 -36 25 -43 6 -7 -17 17 -66 44 -88 12 -11 16 -19 9 -23 -28 -17 -173 122 -188 180 -5 17 -19 35 -32 42 -13 6 -31 22 -40 33 -9 12 -30 23 -46 25 -16 1 -49 5 -74 8 -26 3 -55 1 -67 -6z m207 -207 c17 -33 1 -44 -26 -19 -13 12 -24 26 -24 31 0 17 40 7 50 -12z m-112 -12 c18 -18 15 -28 -8 -28 -11 0 -20 2 -20 4 0 2 -3 11 -6 20 -7 19 16 22 34 4z m68 -20 c3 -21 -7 -23 -24 -6 -17 17 -15 30 5 26 9 -2 17 -11 19 -20z m78 -40 c11 -15 12 -24 5 -29 -6 -3 12 -12 40 -19 38 -9 59 -9 82 -1 41 14 87 15 73 1 -19 -19 -113 -30 -162 -19 -57 12 -79 7 -115 -27 -23 -21 -26 -29 -15 -35 22 -15 54 -10 72 10 38 42 117 31 149 -19 8 -13 23 -20 44 -20 34 0 43 16 21 38 -9 9 -9 12 1 12 7 0 15 -9 18 -20 4 -16 8 -18 19 -9 21 17 18 -10 -3 -33 -15 -17 -15 -20 -3 -28 9 -6 10 -10 3 -10 -6 0 -18 7 -27 15 -10 11 -36 15 -88 15 -89 0 -193 16 -233 36 l-29 15 27 -29 c15 -15 27 -39 27 -53 1 -13 7 -35 15 -49 18 -32 19 -41 2 -34 -16 6 -50 72 -43 83 3 4 -10 23 -29 41 -19 19 -35 39 -35 46 0 14 23 24 55 24 13 0 27 5 30 10 4 6 -13 10 -44 10 -27 0 -52 4 -56 9 -9 16 13 22 33 10 12 -8 30 -9 48 -4 l29 8 -32 9 c-18 5 -33 13 -33 18 0 13 27 13 35 0 3 -5 18 -10 33 -10 l27 0 -30 20 c-24 16 -26 20 -13 25 10 4 29 -3 47 -16 17 -12 34 -20 38 -16 3 4 1 7 -5 7 -6 0 -16 9 -22 20 -9 17 -8 20 9 20 11 0 27 -10 35 -22z m-115 -293 c7 -15 26 -33 42 -39 16 -5 29 -16 29 -24 0 -22 90 -56 145 -54 57 2 101 -13 110 -35 8 -23 2 -26 -65 -24 -34 1 -69 -3 -79 -9 -14 -7 -23 -4 -41 15 -13 14 -31 23 -39 20 -10 -3 -27 10 -45 35 -16 22 -38 42 -48 46 -10 3 -18 9 -18 14 0 5 -11 21 -25 36 -20 21 -23 30 -14 41 16 19 31 12 48 -22z"/>
 <path d="M3955 2900 c-3 -5 3 -10 14 -10 12 0 21 5 21 10 0 6 -6 10 -14 10 -8 0 -18 -4 -21 -10z"/>
 <path d="M2352 3263 c-12 -54 -9 -63 19 -63 14 0 25 12 36 37 17 42 9 66 -25 71 -17 3 -22 -5 -30 -45z"/>
 <path d="M3568 3243 c0 -10 -2 -25 -2 -33 -1 -8 -7 -14 -14 -12 -7 1 -12 -2 -12 -8 0 -5 6 -10 14 -10 21 0 57 -75 43 -89 -8 -8 -6 -15 9 -27 16 -13 16 -15 2 -10 -10 3 -18 1 -18 -4 0 -6 9 -10 19 -10 21 0 37 32 26 50 -4 6 -8 21 -10 33 -3 26 -44 137 -51 137 -2 0 -5 -8 -6 -17z"/>
 <path d="M4526 3220 c-26 -22 -56 -40 -65 -40 -29 -1 -61 -24 -52 -38 5 -8 12 -14 17 -15 5 -1 8 -8 8 -14 -2 -15 12 -17 21 -3 8 13 25 13 25 1 0 -5 -25 -22 -56 -38 -47 -23 -58 -34 -70 -68 -7 -22 -10 -43 -5 -48 4 -4 35 -7 67 -5 54 3 59 5 62 28 5 32 17 44 37 36 11 -4 13 -10 7 -23 -15 -28 -4 -45 18 -31 14 9 16 15 8 26 -8 9 -8 16 1 25 10 9 15 8 25 -5 12 -16 15 -15 43 15 43 45 59 99 42 140 -17 42 -58 97 -73 97 -6 0 -33 -18 -60 -40z m62 -167 c2 -8 -5 -13 -17 -13 -12 0 -21 6 -21 16 0 18 31 15 38 -3z"/>
 <path d="M5520 3250 c0 -5 10 -10 23 -10 18 0 19 2 7 10 -19 13 -30 13 -30 0z"/>
 <path d="M3960 3207 c0 -8 12 -24 27 -38 14 -13 23 -18 19 -11 -4 6 -3 12 3 12 5 0 12 -6 14 -12 3 -7 6 -4 6 8 1 14 -10 26 -34 37 -27 13 -35 14 -35 4z"/>
 <path d="M2363 3177 c-12 -20 -4 -82 14 -94 25 -19 30 -16 43 22 8 24 8 40 1 53 -12 23 -48 35 -58 19z"/>
 <path d="M5070 3105 c0 -98 17 -97 22 0 2 55 0 75 -9 75 -9 0 -13 -22 -13 -75z"/>
 <path d="M3345 3163 c-34 -8 -36 -17 -14 -62 19 -41 20 -44 3 -62 -13 -14 -14 -19 -4 -19 8 0 24 -10 37 -22 20 -19 26 -20 33 -8 5 8 6 18 3 24 -4 5 0 7 9 3 17 -6 38 10 38 28 0 6 -17 21 -38 33 -30 16 -41 19 -50 10 -9 -9 -12 -9 -13 0 -1 7 -2 18 -3 25 -2 19 17 35 37 31 21 -4 23 12 1 20 -9 3 -16 5 -17 5 -1 -1 -11 -3 -22 -6z"/>
 <path d="M5522 3159 c2 -6 22 -12 45 -14 22 -2 53 -11 68 -21 l28 -18 -12 22 c-7 13 -23 27 -37 32 -35 14 -97 13 -92 -1z"/>
 <path d="M5119 3118 c-1 -24 -3 -104 -4 -178 -2 -86 -12 -194 -29 -296 -33 -205 -33 -206 -2 -174 39 41 198 347 185 356 -5 3 -7 10 -3 15 3 5 10 7 15 4 5 -4 9 0 9 8 0 7 -17 23 -38 34 -36 21 -37 23 -40 85 -2 49 -7 66 -22 77 -12 8 -20 25 -20 40 0 23 -31 71 -45 71 -3 0 -6 -19 -6 -42z"/>
 <path d="M4356 3128 c4 -13 7 -29 7 -36 0 -18 21 -9 25 12 4 18 -14 46 -30 46 -5 0 -6 -10 -2 -22z"/>
 <path d="M5517 3124 c-12 -13 -8 -44 7 -44 8 0 32 -21 54 -47 35 -42 42 -46 56 -34 43 36 39 71 -11 106 -22 15 -96 29 -106 19z"/>
 <path d="M3546 3105 c-13 -10 -16 -19 -10 -25 5 -5 13 0 21 16 6 13 10 24 10 24 -1 0 -11 -7 -21 -15z"/>
 <path d="M2796 3073 c-9 -23 2 -29 20 -11 14 13 14 16 1 21 -9 3 -18 -1 -21 -10z"/>
 <path d="M5483 3053 c4 -3 2 -12 -4 -20 -9 -10 -7 -13 8 -13 11 0 28 -9 38 -20 14 -16 15 -22 5 -34 -10 -12 -8 -21 10 -46 25 -35 31 -36 54 -11 15 17 16 22 3 52 -19 45 -74 99 -100 99 -11 0 -17 -3 -14 -7z"/>
 <path d="M3475 3013 c-39 -10 -36 -21 7 -28 53 -9 81 -23 72 -36 -3 -5 0 -17 7 -25 17 -20 17 -58 0 -78 -16 -19 -51 -21 -51 -4 0 6 -8 20 -17 31 -14 15 -15 21 -5 24 9 4 10 8 2 18 -8 9 -8 15 0 20 5 3 12 0 14 -7 3 -7 10 -30 16 -51 18 -57 23 -38 7 24 -13 47 -18 55 -46 63 -22 6 -39 5 -59 -5 -15 -7 -28 -13 -29 -14 -1 0 -4 -12 -8 -28 -6 -21 -4 -27 9 -27 23 0 49 -68 42 -113 -6 -36 12 -98 31 -110 15 -9 0 98 -23 176 -3 9 -1 17 4 17 15 0 42 -98 42 -151 0 -54 19 -69 21 -16 1 17 3 24 6 15 2 -10 10 -18 16 -18 8 0 7 -4 -1 -12 -7 -7 -12 -28 -12 -48 0 -32 7 -43 49 -78 54 -46 77 -56 42 -18 -16 17 -19 25 -9 28 10 4 10 8 1 20 -10 11 -10 18 1 34 24 35 28 72 10 99 -14 21 -14 30 -4 55 7 16 12 33 12 37 0 4 4 13 8 18 12 15 5 82 -12 103 -68 86 -88 98 -143 85z m70 -213 c5 -8 11 -8 20 0 19 16 23 3 17 -72 -5 -73 -22 -84 -22 -14 0 29 -7 52 -21 70 -11 14 -16 26 -10 26 5 0 13 -5 16 -10z"/>
 <path d="M5066 2973 c-7 -48 -5 -103 4 -103 7 0 20 74 20 116 0 38 -18 28 -24 -13z"/>
 <path d="M2676 2979 c-25 -20 -28 -20 -45 -5 -37 34 -81 10 -81 -44 0 -17 -4 -20 -20 -15 -13 4 -31 0 -46 -9 -19 -13 -23 -22 -18 -43 l7 -26 -31 19 c-37 21 -53 12 -27 -16 13 -14 31 -20 60 -20 34 0 44 -4 48 -20 5 -21 44 -40 80 -40 13 0 34 14 49 30 26 30 48 39 48 20 0 -11 30 -13 54 -4 9 3 16 12 16 20 0 8 8 15 18 15 9 1 24 2 32 3 25 2 40 16 40 40 0 34 -19 46 -73 46 -37 0 -48 3 -44 13 6 15 0 26 -24 45 -13 10 -21 8 -43 -9z"/>
 <path d="M5455 2992 c-13 -14 -4 -42 15 -42 15 0 49 36 38 41 -10 5 -48 5 -53 1z"/>
 <path d="M2345 2951 c-4 -12 -5 -25 -2 -27 10 -10 95 -32 101 -27 12 13 5 20 -34 33 -23 8 -45 20 -49 28 -7 12 -10 11 -16 -7z"/>
 <path d="M4318 2928 c-10 -6 -8 -8 4 -8 10 0 23 -9 30 -20 10 -15 24 -20 54 -20 46 0 73 20 52 37 -17 14 -124 22 -140 11z"/>
 <path d="M4569 2928 c-7 -13 -4 -48 3 -48 6 0 8 7 4 15 -3 8 2 19 12 24 16 10 16 10 0 11 -10 0 -19 -1 -19 -2z"/>
 <path d="M5496 2895 c-4 -14 -4 -36 0 -49 5 -21 2 -25 -23 -28 l-28 -4 30 -13 c28 -11 31 -10 52 16 28 34 28 51 4 81 -24 28 -27 28 -35 -3z"/>
 <path d="M4586 2869 c-23 -22 -20 -23 23 -8 24 9 29 14 19 20 -18 12 -20 11 -42 -12z"/>
 <path d="M4615 2841 c-55 -22 -85 -40 -85 -50 0 -5 24 4 54 19 29 15 62 30 72 32 11 2 15 6 9 10 -5 3 -28 -2 -50 -11z"/>
 <path d="M5056 2828 c-9 -36 -7 -68 5 -68 8 0 7 -5 -1 -15 -7 -9 -10 -18 -6 -22 12 -12 18 6 21 66 3 61 -7 82 -19 39z"/>
 <path d="M5336 2826 c19 -14 19 -15 0 -50 -11 -20 -17 -38 -14 -41 3 -3 13 13 23 35 15 32 15 42 5 55 -7 8 -17 15 -23 15 -6 0 -2 -6 9 -14z"/>
 <path d="M4549 2774 c-21 -24 -22 -26 -3 -16 25 13 50 42 37 42 -5 0 -20 -12 -34 -26z"/>
 <path d="M4580 2735 c-9 -11 -16 -12 -26 -4 -10 8 -23 1 -54 -28 -23 -21 -46 -47 -51 -58 -8 -14 -4 -12 13 6 26 29 71 59 89 59 7 0 -6 -13 -29 -29 -38 -28 -60 -51 -48 -51 10 0 82 51 119 85 31 28 34 35 19 35 -11 0 -25 -7 -32 -15z"/>
 <path d="M5280 2736 c0 -8 -7 -22 -16 -30 -8 -9 -12 -16 -7 -16 4 0 2 -4 -6 -9 -9 -6 -10 -11 -2 -15 6 -4 14 1 18 11 4 10 10 20 13 23 13 9 22 50 11 50 -6 0 -11 -6 -11 -14z"/>
 <path d="M5035 2629 c-10 -30 0 -33 13 -4 6 14 7 25 2 25 -5 0 -12 -9 -15 -21z"/>
 <path d="M4474 2603 c-13 -41 -28 -63 -42 -61 -8 2 -17 -3 -19 -9 -6 -18 32 -16 47 2 6 8 16 30 20 50 8 36 4 49 -6 18z"/>
 <path d="M3512 2558 c6 -17 36 -34 44 -25 4 4 -1 14 -12 22 -23 18 -37 19 -32 3z"/>
 <path d="M5163 2543 c4 -3 2 -12 -4 -19 -7 -8 -7 -14 1 -19 5 -3 10 1 10 9 0 9 5 16 11 16 5 0 7 5 4 10 -3 6 -11 10 -17 10 -6 0 -8 -3 -5 -7z"/>
 <path d="M3642 2523 c9 -10 13 -24 11 -30 -3 -7 0 -13 7 -13 6 0 8 5 5 10 -9 15 7 12 32 -5 17 -12 27 -13 50 -4 l28 12 -45 10 c-24 5 -54 15 -65 23 -27 20 -41 17 -23 -3z"/>
 <path d="M4472 2520 c-8 -13 -8 -20 -2 -20 6 0 13 7 17 15 9 24 -1 27 -15 5z"/>
 <path d="M4390 2470 c8 -5 33 -9 55 -9 35 1 37 2 15 9 -14 4 -38 8 -55 9 -23 0 -26 -2 -15 -9z"/>
 <path d="M3686 2450 c7 -7 19 -7 35 -1 23 9 22 10 -10 10 -24 1 -32 -2 -25 -9z"/>
 <path d="M4408 2443 c12 -2 22 -9 22 -14 0 -15 -30 -23 -42 -11 -6 6 -18 8 -27 4 -13 -5 -11 -8 9 -13 23 -6 23 -7 3 -8 -12 -1 -24 -5 -28 -11 -7 -12 81 14 100 30 21 18 9 30 -28 29 -24 -1 -26 -3 -9 -6z"/>
 <path d="M4270 2430 c8 -5 24 -10 34 -10 26 0 18 6 -19 14 -22 5 -26 4 -15 -4z"/>
 <path d="M5130 2423 c-21 -8 -50 -34 -50 -46 0 -6 10 -1 23 11 13 12 29 22 35 22 7 0 12 5 12 10 0 6 -1 10 -2 9 -2 0 -10 -3 -18 -6z"/>
 <path d="M5165 2400 c-3 -4 0 -10 6 -12 16 -5 -7 -48 -25 -48 -19 0 -27 -25 -17 -52 l8 -23 8 25 c4 14 19 42 31 62 13 21 24 39 24 42 0 9 -30 15 -35 6z"/>
 <path d="M5067 2349 c-9 -6 -17 -14 -17 -18 0 -15 35 -19 47 -5 17 18 -6 36 -30 23z"/>
 <path d="M4994 2252 c-16 -20 -37 -49 -46 -64 -18 -28 -18 -28 8 -28 21 0 24 4 19 20 -4 13 2 28 19 45 24 24 53 35 41 15 -3 -5 -1 -10 4 -10 15 0 13 21 -2 42 -12 15 -16 13 -43 -20z"/>
 <path d="M5087 2272 c-20 -22 -22 -39 -4 -45 20 -7 -7 -42 -34 -43 -40 -2 -43 -4 -32 -15 7 -7 23 -9 38 -5 32 8 60 63 42 84 -8 10 -7 16 3 22 8 5 12 11 9 15 -3 3 -13 -3 -22 -13z"/>
 <path d="M6396 6219 c-64 -75 -1 -229 94 -229 32 0 78 27 85 51 19 60 -77 209 -135 209 -10 0 -30 -14 -44 -31z"/>
 <path d="M7103 3810 c-99 -11 -147 -54 -218 -194 -42 -81 -45 -94 -45 -163 0 -87 20 -138 83 -209 50 -56 154 -107 268 -130 76 -16 95 -16 155 -5 123 23 164 49 233 150 75 110 90 162 72 257 -16 91 -45 147 -100 196 -103 91 -241 122 -448 98z"/>
 <path d="M6429 2684 c-94 -50 -172 -123 -206 -192 -24 -48 -28 -68 -26 -129 2 -98 39 -177 121 -258 109 -108 213 -154 347 -155 54 0 67 5 152 55 134 80 171 138 180 283 6 80 5 85 -30 156 -58 116 -163 196 -330 251 -101 33 -129 31 -208 -11z"/>
 <path d="M5710 1612 c-63 -17 -131 -51 -180 -90 l-23 -19 26 -67 c30 -74 66 -134 108 -183 15 -18 41 -61 59 -97 17 -36 35 -68 39 -71 11 -6 153 53 214 88 23 14 58 41 77 61 30 32 35 43 38 101 4 58 1 73 -26 128 -73 149 -169 191 -332 149z"/>
 <path d="M3568 1339 c-17 -9 -16 -14 11 -67 44 -87 121 -214 145 -240 30 -34 74 -55 101 -48 12 3 35 25 50 48 16 24 44 66 63 93 67 98 142 213 142 219 0 11 -494 6 -512 -5z"/>
 </g>

</svg>